<svg xmlns="http://www.w3.org/2000/svg" xml:space="preserve" fill-rule="evenodd" clip-rule="evenodd" image-rendering="optimizeQuality" shape-rendering="geometricPrecision" text-rendering="geometricPrecision" viewBox="0 0 10160 10160">
  <defs>
    <style>
      .fil5{fill:#0086b4}.fil11{fill:#00b1df}.fil4{fill:#03b1df}.fil1{fill:#0e3b4a}.fil12{fill:#0f3a4c}.fil2{fill:#134d62}.fil10{fill:#46eaff}.fil7{fill:#49eafe}.fil20{fill:#637d8e}.fil3{fill:#79c45d}.fil8{fill:#7ac45d}.fil13{fill:#7ac55e}.fil0{fill:#fdfefd}
    </style>
  </defs>
  <g id="Capa_x0020_1">
    <g id="_2130138619536">
      <path d="M3407.76 5472.09c-39.02-136.91 83.59-276.28 185.66-298.63 323.41-70.83 409.33 454.49 97.94 499.42-70.03 10.12-141.8-6.71-193.16-41.11-40.62-27.21-73.58-100.53-90.44-159.68zm2810.57-18.69c-49.75-344.73 437.47-386.25 478.76-54.99 38.1 305.56-428.17 405.55-478.76 54.99zm1089.48-392.54c62.79-95.16 299.89-265.62 448.29-316.08 167.74-57.04 361.82-28.09 540.4-29.91 65.08-.67 127.86-11.53 189.02-10.06l-10.53 10.44c-73.71 55.1-471.43 176.82-548.35 200.45-94.99 29.18-209.56 49.52-312.34 70.93-103.28 21.51-213.04 55.26-306.49 74.23zM1579.5 4691.73c38.68-2.34 213.32 27.57 351 23.46 256.03-7.63 405.41-40.52 619.89 136.3 46.97 38.71 181.4 146.23 201.87 191.55l-322.78-60.8c-291.97-41.85-603.66-160.24-849.98-290.51zm7036.92-221.4c-31.27 25.69-88.13 35.2-130.59 42.89-161.37 29.22-324.6 10.4-487.61 7.95l-63.39-2.3 32.93-69.99c41.11-185.84 197.28-479.55 361.44-597.25 217.68-156.06 479.29-187.79 762.67-109.02 19.99 257.92-294.14 724.49-475.45 727.72zm-6488.96-78.59c23.67 40.5 52.3 71.22 59.97 131.92l-45.72-5.04c-201.89-10.36-387.2 37.89-586.56-16.58-87.7-23.96-147.27-59.23-201.76-105.98-39.65-34.04-130.69-120.76-149.26-172.79-57.98-32.81-178.77-374.23-171.66-474.81 187.76-99.63 539.74-43.57 735.39 83.39 134.44 87.23 300.89 398.64 359.6 559.89zm2395.2-1286.4c93.2-181.59 249.53-318.77 525.44-316.01 244.85 2.46 456.31 158.53 525.01 331.17 245.02 439.27-81.9 879.43-506.1 895.78-249.97 9.65-428.55-124.38-514.13-271.67-127.72-219.76-111.24-392.85-30.22-639.27zm2651.19 1669.5c-31.96 31.75-91.21 67.53-131.52 96.12-25.63 18.19-47.52 33.1-70.33 51.21-25.77 20.45-39.5 41.46-63.41 53.95-11.55 14.75 18.52 13.81-21.66 10.74-35.49-52.03-123.27-305.05-144.14-379.05-119.34-423.06-2.86-932.27 245.54-1257.05 165.15-215.91 305.78-337.34 581.15-474 165.04-81.9 602.64-252.17 797.68-270.06-15.19 100.4-67.55 227.39-93.43 330.06-29.14 115.63-52.42 227.98-74.79 345.86-70.33 370.7-203.94 733-438.25 1018.12-31.8 38.68-62.88 83.73-94.01 120.97-66.66 79.62-367.07 302.85-492.83 353.13zM3222.2 4966.83c-33.81-3.72-92.69-58.07-119.97-79.14-40.95-31.62-80.85-60.01-125.29-85.26l-134.33-84.36c-47.72-29.89-83.85-53.39-131.5-83.4-247.9-156.02-445.07-430.09-579.12-709.33-208.82-434.94-185.36-604.31-294.77-994.05-24.5-87.28-90.39-247.25-99.79-324.3 177.47 5.95 635.41 191.28 786.02 263.59 634.11 304.42 1031.62 999.98 857.78 1719.77-15.7 64.98-36.28 135.15-64.83 195.31-15.64 32.96-74.98 159.22-94.2 181.17zm1791.63-247.51c-88.83 126.93-183.91 239.44-276.06 358.48l-287.23 358.01c-26.57-19.48-33.38-35.98-33.1-78.18-30.69-29.38-134.3-304.65-164.63-369.5-145.12-310.31-410.36-813.61-511.24-1085.59-116.96-315.41-115.55-583.28-17.59-913.1 78.93-265.68 207.59-532.06 339.07-714.76-73.75 142.99-145.49 610.85-148.73 806.43-7.6 457.94 115.21 647.59 400.69 920.16 343.12 327.66 623.52 218.32 732.11 360.43 92.7 121.31 45.8 271.65-33.29 357.62zM6850.4 2950.24c-8.63 28.48-81.44 110.11-105.02 119.59l-34.21-91.42c-29.66-29.87-128.93-210.32-155.81-256.71-155.52-268.21-328.21-541.4-323.49-882.81 3.48-251.89 96.89-433.06 205.89-607.9 61.18-98.15 282.18-418.72 355.81-450.74 61.03 37.93 129.99 158.2 174.67 230.17 46.08 74.26 101.72 166.43 141.07 251.14 198.32 427.07 303.25 812.32 101.53 1256.37-60.39 132.94-248.22 379.17-360.44 432.31zm-3446.21 31.7-10.11 23.02-26.38 58.52c-38.89-8.64-24.29-5.53-51.74-33.75-13.15-13.51-28.09-24.62-36.38-41.12-79.74-35.83-321.23-371.08-362.32-446.77-212.48-391.2-111.82-882.29 78.18-1271.28 59.59-122.01 225.74-444.52 297.57-498.1 93.32 21.52 311.48 350.98 369.61 444.49 410.54 660.37 150.44 1144.12-217.01 1708.43l-31.54 45.18c-1.03 1.31-4.12 7.23-4.89 5.68-.77-1.57-3.28 3.84-4.99 5.7zm2221.78-1103.45c3.53 183.05-224.61 405.93-433.08 460.65-286.06 75.09-525.95-94.89-625.89-243.27-204.64-303.87-105.52-570.14 80.12-826.01l306.79-360.44c13.47-54.16 61.84-119.95 112.72-125.53 26.99 28.07 45.85 69.17 72.73 104.45l235.51 296.76c20.8 4.8 32.33 26.36 48.4 44.86 16.48 18.99 34.44 32.42 41.71 54.35 74.25 36.3 146.54 195 147.45 269.54 43.68 45.16 42.76 209.93 25.78 286.62l-12.24 38.02zM858.65 7055.64c32.45 23.46 77.92 45.35 110.7 63.94 595.39 312.86 950.48 423.39 1614.46 564.56 441.9 93.97 1206.42 40.64 1585.2 311.04l139.38 104.58c29.01 4.39 5.34 18.82 24.22-7.21-460.12-629.35-1471.78-505.82-2265.55-750.2-562.41-173.17-987.25-513.28-1205.57-1062.74-60.87-153.21-147.82-400.34-164-579.19-47.23-92.25-50.61-237.91-56.48-350.07 27.4 11.02 97.14 125.08 192.18 210.74 76.23 68.68 142.46 120.6 224.9 185.85 141.86 112.3 320.03 232.46 485.99 335.75 155.94 97.06 881.31 521.2 1058.11 594.76 19.88 33.27 410.21 224.47 500.17 274.56 12.53 6.97 25.92 15.91 36.84 20.86 39.96 18.13 37.22 6.16 45.14-1-51.53-19.45-159.11-96.83-220.25-134.09-39.48-24.06-69.7-40.15-110.82-66.53-28.53-18.31-78.52-58.46-102.35-67.13-117.51-38.93-413.36-240.25-538.62-318.76-182.28-114.25-347.07-224.49-518.09-340.83-185.43-126.13-319.23-229.54-494.42-364.66-88-67.9-393.84-346.63-428.24-433.85 15.14 3.19 228.62 95.59 340.05 129.26 122.04 36.87 232.32 82.19 352.97 123.71 335.74 115.51 343.04 103.64 679.77 263.24 313.38 148.56 617.01 329.75 880.22 538.79 50.02 39.74 231.11 198.77 259.82 210.99l30.29 4.11c-33.06-51.33-87.08-78.63-129.77-123.39-87.12-91.32-313.09-260.89-415.35-331.57-678.39-468.95-1147.73-622.05-1926.92-818.32-46.06-11.59-146.4-33.35-161.77-78.97 78.93-54.01 559.2-35.71 680.92-27.99 726.04 45.89 1428.66 297.74 1987.71 728.08l367.91 350.82c114 127.51 261.17 382.7 345.93 550.67 25.58 50.69 212.5 477.61 209.9 496.95 4.58-1.46 19.39 19.99 13.85-50l-28.28-164.23c-38.35-266.79-50.84-447.52 17.03-715.11 89.24-351.77 331.44-738.97 586.07-1000.24l241.11-291.49c76.72-104.54 144.18-179.12 204.86-327.42 25.06-61.28 47.85-133.17 55.41-203.97 11.57-108.39-18.84-164.3-17.75-252.02 28.94-27.84 209.24-84.19 347.95-185.39 35.9-26.21 67.88-58.44 100.88-86.05 423.68-354.55 442.35-863.09 327.31-1382.15-10.49-47.32-23.64-96.07-34.11-142.44-6.12-27.05-10.96-49.92-17.08-76.84-5.71-25.15-14.73-47.62-5.02-66.78 60.3 63.73 266.03 509.05 305.78 625.32 241.47 706.37-138.29 1207.56-393.6 1786.93l-115.84 229.83c-6.12 11.03-11.07 22.6-17.42 38.35l-24.77 44.88c-2.05 107.19-364.53 620.63-427.34 707.7-520.24 721.09-717.93 1263.28-560.91 2179.74 42.22 246.38 70.83 263.92 113.4 441.14l9.94-94.47-6.69-13.36c-16.22-45.64-10.9-120-10.46-167.77 1.73-184.72 11.41-368.79 34.74-551.13 31.95-249.63 82.66-422.57 141.67-649.17 40.31-185.99 179.91-390.52 265.76-522.58l234.87-353.44c26.27-42 37.17-92.11 68.15-129.37 80.48 39.1 184.68 495.17 193.45 617.55 23.31 325.28-59 587.29-51.15 745.21 36.61-36.34 79.66-189.36 106.67-253.31 108.06-255.76 226.07-472.9 383.12-690.36 108.79-150.64 212.6-254.8 349.83-369.11 126.82-105.64 259.39-207.34 417.96-300.85 443.29-261.42 1107.12-478.74 1651.01-505.73 118.95-5.89 598.29-19.5 673.13 29.6-40.25 71.22-279.98 108.26-382.58 130.85-626.63 137.81-1215.3 435.72-1723.97 796.24-120.22 85.2-503.28 381.16-537.89 466.81 6.22 19.03-1.21 13.35 13.47 3.76 82.84-65.73 166.07-145.66 261.69-219.66 758.87-587.23 1271.46-724.8 2115.88-1039.13 51.03-19 136.18-53.65 176.83-63.36-14.96 63.24-169.85 211.95-212.5 251.09-21.93 20.12-37.05 32.42-59.94 52.24-39.56 34.25-136.87 139.98-195.96 164.77l-179.06 141.84c-63.12 45.64-124.13 91.78-189.67 137.02l-789.32 517.63c-181.78 112.74-225.6 144.12-423.62 242.34-67.38 31.96-152.95 94.04-215.24 136.5-37.07 25.27-64.81 44.34-104.93 72.77-31.46 22.32-72.67 56.39-99.99 71.05l345.86-180c120.52-62.84 238.36-119.49 355.81-186.03 572.89-324.56 1429.84-755.15 1828.53-1261.73 17.89-22.71 43.92-51.59 72.01-65.48l-46.76 372.19c-2.84 107.94-131.11 491.15-174.97 589.67-254.25 571.18-608.17 850.48-1214.93 1053.58-806.71 270.06-1836.31 98.06-2262.52 760.35 10.1 21.56-20.01 18.55 27.84 15.56 118.24-207.07 582.6-297.26 791.59-333.95 513.88-90.21 867.8-58.7 1457.34-230.23 146.79-42.7 287.63-93.51 432.33-138.8 289.8-90.73 527.55-221.02 787.06-354.9 120.35-187.14 270.03-692.55 329.13-946.89 87.14-375.1 111-757.09 106.9-1161.58-8.16-803.04-182.61-1431.69-506.6-2041.22-75.28-141.65-156.25-275.74-241.11-403.4-82.78-124.57-174.66-260.52-264.99-370-102.89-124.68-338.78-381.96-458.69-493.64l-211.58-189.67c-143.82-127.3-560.43-417.1-703.41-491.98-247.49-129.66-95.37-60.76-308.9-325.22-35.54-44.01-108.35-114.75-189.54-127.93-129.39-21.01-163.44 60.32-212.81 103.37-158.89-13.89-645.48-270.4-1558.91-268.58-410.25.83-981.23 93.69-1377.25 222.71-53.31 17.38-118.7 56.87-163 63.52-33.63-38.94-32.08-67.89-75.88-94.58-110.03-67-247.32.44-329.01 107.5-171.35 224.53-38.3 189.93-306.8 328.01-136.26 70.07-270.77 166.55-383.29 251.72l-357.28 277.88-246.73 238.46c-150.87 137.09-133.43 138.03-233.75 242.7-221.58 231.23-486.02 642.88-648.63 938.87-495.95 902.67-645.95 2144.43-392.31 3194.82 58.76 243.36 213.05 728.93 333.94 933.91z" class="fil0"/>
      <path d="M4273.23 7262.4c2.6-19.34-184.32-446.26-209.9-496.95-84.76-167.97-231.93-423.16-345.93-550.67l-367.91-350.82c-559.05-430.34-1261.67-682.19-1987.71-728.08-121.72-7.72-601.99-26.02-680.92 27.99 15.37 45.62 115.71 67.38 161.77 78.97 779.19 196.27 1248.53 349.37 1926.92 818.32 102.26 70.68 328.23 240.25 415.35 331.57 42.69 44.76 96.71 72.06 129.77 123.39 35.03 13.33 282.82 301.19 292.45 329.91 43.51 29.66 211.79 257.99 230.09 327.39-64.92-26.84-531.48-372.84-606.4-425.06-99.36-69.28-200.63-132.56-312.98-200.45-113.42-68.55-200.58-132.16-311.38-202.09-175.76-110.95-462.78-289.45-643.01-384.04l-516.25-249.41c-64.86-28.36-118.55-65.62-182.34-84.49 12.47 21.35-3.51 1.24 18.8 23.59l333.89 263.98c123.31 89.98 245.73 171.52 376.6 258.26 133.61 88.56 234.89 167.07 376.65 258.22 58.65 37.72 346.34 203.25 380.13 272.19 23.83 8.67 73.82 48.82 102.35 67.13 41.12 26.38 71.34 42.47 110.82 66.53 61.14 37.26 168.72 114.64 220.25 134.09l154.58 98.1c25.35 16.79 49.62 34.11 71.33 50.03 16.6 12.17 20.82 15.33 36.88 28.02l21.03 17.99c1.63 1.67 3.6 4.05 5.06 5.64l9.9 12.36c27.88 6.37 135.09 95.62 157.02 119.33-67.63-13.96-142.4-44.76-220.52-62.93-278.18-64.75-459.04-77.7-721.19-126.74-418.35-78.26-911.5-220.23-1244.66-464.56-150.76-110.57-174.89-129.98-310.8-258.57L1007 6246.44c-149.75-184.6-214.9-416.5-309.51-546.02 16.18 178.85 103.13 425.98 164 579.19 218.32 549.46 643.16 889.57 1205.57 1062.74 793.77 244.38 1805.43 120.85 2265.55 750.2 59.13 92.82 135.95 205.74 165.41 339.77 38.49 60.31 156.39 407.03 163.93 484.65l27.95 52.05c7.96 23.91 12.95 39.87 20.86 62.57 15.54 44.64 26.05 83.3 39.75 128.04 18.3 59.84 55.56 204.45 82.73 244.55 18.05 19.35 95.5 214.84 78.39 273.76-134.9 20.89-620.7-42.12-756.66-70.86l-502.13-132.26c-31.03-10-45.72-14.81-79.09-22.8-39-9.32-63.54-12.98-84.66-38.83-79.93-33.69-169.41-57.29-254.21-91.01-300.66-119.55-675.3-326.83-934.67-512.53-218.05-156.1-217.09-169.54-399.53-328.71-53.33-46.52-139.09-126.34-181.45-190.44l-475.64-562.35c-95.31-125.24-341.42-505.56-384.94-672.51-120.89-204.98-275.18-690.55-333.94-933.91-253.64-1050.39-103.64-2292.15 392.31-3194.82 162.61-295.99 427.05-707.64 648.63-938.87 100.32-104.67 82.88-105.61 233.75-242.7l246.73-238.46L2403.41 1229c112.52-85.17 247.03-181.65 383.29-251.72 268.5-138.08 135.45-103.48 306.8-328.01 81.69-107.06 218.98-174.5 329.01-107.5 43.8 26.69 42.25 55.64 75.88 94.58 44.3-6.65 109.69-46.14 163-63.52 396.02-129.02 967-221.88 1377.25-222.71 913.43-1.82 1400.02 254.69 1558.91 268.58 49.37-43.05 83.42-124.38 212.81-103.37 81.19 13.18 154 83.92 189.54 127.93 213.53 264.46 61.41 195.56 308.9 325.22 142.98 74.88 559.59 364.68 703.41 491.98l211.58 189.67c119.91 111.68 355.8 368.96 458.69 493.64 90.33 109.48 182.21 245.43 264.99 370 84.86 127.66 165.83 261.75 241.11 403.4 323.99 609.53 498.44 1238.18 506.6 2041.22 4.1 404.49-19.76 786.48-106.9 1161.58-59.1 254.34-208.78 759.75-329.13 946.89l-89.01 199.45c-48.27 128.45-168.01 277.18-235.35 378.6-42.51 50.76-77.7 104.37-119.6 158.05-41.14 52.74-79.08 99.74-125.5 154.52-89.27 105.37-175.03 213.46-269.21 293.23-38.04 101.99-640.7 592.99-802.11 699.09-146.79 96.5-310.89 184.34-480.51 266.16-85.3 41.14-168.33 79.11-258.05 115.67-97.19 39.64-182.01 56.97-283.68 87.91-34.28 48.85-74.11 50.98-145.12 72.31-319.4 95.93-956.67 220.47-1249.31 187.85-13.39-49.67 34.63-215.76 65.21-247.44 10.8-62.91 56-179.54 77.4-245.15l70.92-218.51c1.25-2.34 2.54-4.62 3.86-6.85 8.37-13.96 6.31-10.7 14.79-19.57-6.35-45.35 26.19-93.72 36.24-139.07 38.7-104.8 79.57-299.01 139.14-371.5 17.13-108.89 106.58-252.92 153.73-322.43 426.21-662.29 1455.81-490.29 2262.52-760.35 606.76-203.1 960.68-482.4 1214.93-1053.58 43.86-98.52 172.13-481.73 174.97-589.67-9.34-20.42-4.41-1.83-40.92 78.74-53.49 117.99-189.31 333.02-266.85 433.9l-135.51 153.89c-26.33 22.23-42 47.54-69.4 70.75-33.71 28.57-41.82 31.81-74.03 65.93-42.85 45.41-106.02 86.02-156.89 123.34-633.41 464.77-1431.13 453.65-2174.77 657.42 17.21-26.09 316.79-239.11 362.92-262.92 27.32-14.66 68.53-48.73 99.99-71.05 40.12-28.43 67.86-47.5 104.93-72.77 62.29-42.46 147.86-104.54 215.24-136.5 40.14-69.32 268.08-192.51 359.58-250.15 128.45-80.88 249.87-158.99 371.53-244.77l353.34-253.6c36.84-27.83 316.84-250.04 355.73-258.48 16.04-29.8 112.17-92.19 144.08-124.63-144.14 15.46-731.51 344.84-902.07 447.67-99.61 60.07-182.21 120.93-277.33 180.16l-1124.72 705.46c-6.8 16.71-48.01 42.22-65.29 55.94l-217.51 186.95c10.17-37.61 146.58-242.76 174.01-259.99 14.3-37.16 77.97-114.46 104.49-146.14 18.36-21.94 21.99-30.12 36.62-47.5 39.79-47.22 133.52-165.82 169.74-179.46 34.61-85.65 417.67-381.61 537.89-466.81 508.67-360.52 1097.34-658.43 1723.97-796.24 102.6-22.59 342.33-59.63 382.58-130.85-74.84-49.1-554.18-35.49-673.13-29.6-543.89 26.99-1207.72 244.31-1651.01 505.73-158.57 93.51-291.14 195.21-417.96 300.85-137.23 114.31-241.04 218.47-349.83 369.11-157.05 217.46-275.06 434.6-383.12 690.36-27.01 63.95-70.06 216.97-106.67 253.31-7.85-157.92 74.46-419.93 51.15-745.21-8.77-122.38-112.97-578.45-193.45-617.55-30.98 37.26-41.88 87.37-68.15 129.37l-234.87 353.44c-85.85 132.06-225.45 336.59-265.76 522.58 135.05 49.06 171.31 480.41 172.39 658.59 1.63 270.38-95.2 484.57-106.95 722.78-5.54 74.88-67.24 327.37-91.01 428.09-8.92 37.76-13.43 110.53-40.43 138.25-40.75-46.56-36.14-161.37-50.42-230.05-16.61-79.93-50.44-159.49-52.78-241.76-42.57-177.22-71.18-194.76-113.4-441.14-157.02-916.46 40.67-1458.65 560.91-2179.74 62.81-87.07 425.29-600.51 427.34-707.7-33.27-7.43-10.09-1.54-18.15 5.71l-62.45 58.17c-1.11 1.4-2.76 3.59-3.83 5.05l-289.31 364.35c-415.88 537.86-795.8 856.55-816.83 1583.02-2.47 85.87-1.59 101.07-75.07 121.71-60.47 17-178.27 26.38-243.45 37.45-14.66 24.73-9.42 20.03-9.69 54.66-56.82 21.78-4.5 5.83-27.6-11.3zm309.1-7212.96c-125.84-20.33-633.75 97.74-768.37 134.27-526.03 142.7-808.97 289.58-1263.07 548.48-214.25 122.13-353.35 203-542.59 362.99-38.64 32.65-90.73 67.76-124.44 99.8l-234.49 213.46c-192.53 173.21-384.25 390.37-540.5 598.96-264.13 352.58-468.88 677.39-667.35 1153.33C49.75 4100.25-43.55 5201.22 214.36 6264.8c134.8 555.85 394.69 1117.95 689.36 1569.83 141.38 216.78 332.66 447.59 508.02 631.02l113.92 119.72c459.56 518.89 1391.69 1070.68 2333.62 1289.43 1518.95 352.77 3070.55 39.66 4269.02-881.66 44.24-34.01 81.02-64.79 125.13-99.23l238.67-209.33c40.98-42.9 81.12-69.97 122.83-110.68l419.13-495.95c340.24-458.95 433.67-623.25 654.17-1157.57 124.86-302.54 369.85-1185.43 341.14-1477.67-1.3-28.91 2.52-53.22 4.11-82.84.44-7.94.4-32.69 1.25-38.26 6.88-45.25-5.8-19.64 16.71-28.16V4785.6c-26.94-.48-17.1-5.58-20.4-40.71-2.05-21.75 0-41.38 1.96-62.26 28.84-160.22-119.32-797.1-168.57-966.72-86.6-298.17-186.46-566.27-315.6-832.43-134.38-276.91-269.1-495.3-428.88-719.58-103.43-145.18-320.21-400.68-449.71-549.23-28.93-33.21-35.03-47.75-69.59-79.95l-453.66-405.66c-58.44-47.25-103.8-84.49-162.73-126.59-222.62-159.03-450.2-292.92-716.45-431.81-269.39-140.53-490.95-244.35-808.18-340.2-169.59-51.23-786.62-209.7-958.08-185.45-20.6 1.56-41.88 3.47-62.87 1.71-34.42-2.92-39.94 6.98-40.44-19.7h-621.58c-7.54 21.31 4.07 13.08-35.73 16.42-17.44 1.46-38.79 1.11-57.02 2.24-36.93 2.32-66.7 8.71-101.58 3.76z" class="fil1"/>
      <path d="M4273.23 7262.4c23.1 17.13-29.22 33.08 27.6 11.3.27-34.63-4.97-29.93 9.69-54.66 65.18-11.07 182.98-20.45 243.45-37.45 73.48-20.64 72.6-35.84 75.07-121.71 21.03-726.47 400.95-1045.16 816.83-1583.02l289.31-364.35c1.07-1.46 2.72-3.65 3.83-5.05l62.45-58.17c8.06-7.25-15.12-13.14 18.15-5.71l24.77-44.88c6.35-15.75 11.3-27.32 17.42-38.35l115.84-229.83c255.31-579.37 635.07-1080.56 393.6-1786.93-39.75-116.27-245.48-561.59-305.78-625.32-9.71 19.16-.69 41.63 5.02 66.78 6.12 26.92 10.96 49.79 17.08 76.84 10.47 46.37 23.62 95.12 34.11 142.44 115.04 519.06 96.37 1027.6-327.31 1382.15-33 27.61-64.98 59.84-100.88 86.05-138.71 101.2-319.01 157.55-347.95 185.39-1.09 87.72 29.32 143.63 17.75 252.02-7.56 70.8-30.35 142.69-55.41 203.97-60.68 148.3-128.14 222.88-204.86 327.42l-241.11 291.49c-254.63 261.27-496.83 648.47-586.07 1000.24-67.87 267.59-55.38 448.32-17.03 715.11l28.28 164.23c5.54 69.99-9.27 48.54-13.85 50z" class="fil2"/>
      <path d="M6908.59 4976.12c-18.51-15.25-12.45 19.3-12.68-35.69l66.32-215.07c102.51-330.99 208.42-637.25 367.81-939.73 75.36-143.03 312.67-504.64 418.92-556.14l-176.43 360.39c-53.33 121.77-103.26 242.91-152.08 370.97-69.3 181.75-225.65 635.41-246.6 813.99 125.76-50.28 426.17-273.51 492.83-353.13 31.13-37.24 62.21-82.29 94.01-120.97 234.31-285.12 367.92-647.42 438.25-1018.12 22.37-117.88 45.65-230.23 74.79-345.86 25.88-102.67 78.24-229.66 93.43-330.06-195.04 17.89-632.64 188.16-797.68 270.06-275.37 136.66-416 258.09-581.15 474-248.4 324.78-364.88 833.99-245.54 1257.05 20.87 74 108.65 327.02 144.14 379.05 40.18 3.07 10.11 4.01 21.66-10.74zm-3931.65-173.69c-9.95-46.81-101.97-293.39-138.54-425.83-72.92-264.24-193.21-572.44-301.86-818.59-62.61-141.82-177.14-313.48-192.99-352.39 91.17 68.86 233.55 254.31 298.99 358.28 84.57 134.41 160.18 275.41 232.41 430.7 61.38 131.9 355.32 870.38 347.25 972.23 19.22-21.95 78.56-148.21 94.2-181.17 28.55-60.16 49.13-130.33 64.83-195.31 173.84-719.79-223.67-1415.35-857.78-1719.77-150.61-72.31-608.55-257.64-786.02-263.59 9.4 77.05 75.29 237.02 99.79 324.3 109.41 389.74 85.95 559.11 294.77 994.05 134.05 279.24 331.22 553.31 579.12 709.33 47.65 30.01 83.78 53.51 131.5 83.4l134.33 84.36z" class="fil3"/>
      <path d="M1719.23 8290.5c14.58-16.9-5.95-5.68 24.34-8.4 41.27-3.72 233.51 100.9 293.76 127.28 640.22 280.38 1098.11 358.23 1791.36 459.38 246.92 36.03 574.61 82.36 827.21 77.05 7.56-13.87 6.37 3.63 6.05-28.84-7.54-77.62-125.44-424.34-163.93-484.65-1096.44-56.17-1953.81-265.31-2868.33-772.91-179.16-99.44-488.2-287.79-627.16-437.41-26.31-28.32-57.37-53.59-33.18-102.42-32.78-18.59-78.25-40.48-110.7-63.94 43.52 166.95 289.63 547.27 384.94 672.51l475.64 562.35z" class="fil4"/>
      <path d="M6711.17 2978.41c-20.45-114.23-.59-290.4 3.03-410.98 4.2-140.25-2.9-280.49-7.27-420.63-4.18-133.93-8.79-695.75 39.98-780.45 3.69 6.48 44.88 328.48 54.39 379.9 22.93 123.92 48.1 249.72 65.14 374.96 29.14 214.5 46.22 643.95-16.04 829.03 112.22-53.14 300.05-299.37 360.44-432.31 201.72-444.05 96.79-829.3-101.53-1256.37-39.35-84.71-94.99-176.88-141.07-251.14-44.68-71.97-113.64-192.24-174.67-230.17-73.63 32.02-294.63 352.59-355.81 450.74-109 174.84-202.41 356.01-205.89 607.9-4.72 341.41 167.97 614.6 323.49 882.81 26.88 46.39 126.15 226.84 155.81 256.71z" class="fil3"/>
      <path d="M5433.88 8942.18c-8.48 8.87-6.42 5.61-14.79 19.57-1.32 2.23-2.61 4.51-3.86 6.85l-70.92 218.51c-21.4 65.61-66.6 182.24-77.4 245.15-7.89 58.65 1.98 48.03 126.43 48.52l522.83-12.31c231.25-11 450.92-42.08 679.96-48.93 101.67-30.94 186.49-48.27 283.68-87.91 89.72-36.56 172.75-74.53 258.05-115.67 169.62-81.82 333.72-169.66 480.51-266.16 161.41-106.1 764.07-597.1 802.11-699.09-98.79 15.18-522.89 219.01-657.9 273.63-412.68 166.99-667.41 211.2-1090.72 281.53-127.55 21.2-262.52 52.07-391.6 67.55-367.92 44.15-471.55 56.6-845.49 70.59l-.89-1.83z" class="fil5"/>
      <path fill="#0089b4" d="M3489.09 9413.19c176.45 8.56 1259 92.15 1344.8 46.97l-.65-55.98c-27.17-40.1-64.43-184.71-82.73-244.55-13.7-44.74-24.21-83.4-39.75-128.04-7.91-22.7-12.9-38.66-20.86-62.57l-27.95-52.05c.32 32.47 1.51 14.97-6.05 28.84-252.6 5.31-580.29-41.02-827.21-77.05-693.25-101.15-1151.14-179-1791.36-459.38-60.25-26.38-252.49-131-293.76-127.28-30.29 2.72-9.76-8.5-24.34 8.4 42.36 64.1 128.12 143.92 181.45 190.44 182.44 159.17 181.48 172.61 399.53 328.71 259.37 185.7 634.01 392.98 934.67 512.53 84.8 33.72 174.28 57.32 254.21 91.01z"/>
      <path d="M4498.02 8432.32c-29.46-134.03-106.28-246.95-165.41-339.77-18.88 26.03 4.79 11.6-24.22 7.21l-139.38-104.58c-378.78-270.4-1143.3-217.07-1585.2-311.04-663.98-141.17-1019.07-251.7-1614.46-564.56-24.19 48.83 6.87 74.1 33.18 102.42 138.96 149.62 448 337.97 627.16 437.41 914.52 507.6 1771.89 716.74 2868.33 772.91z" class="fil7"/>
      <path d="M4417.44 5357.63c6.3-50.37-8.49-80.33 12.67-130.93 70.01-167.47 381.35-417.69 528.83-498.88 20.41-11.25 15.66-18.86 48.73-11.17 1.25.29 4.4 1.31 6.16 2.67 79.09-85.97 125.99-236.31 33.29-357.62-108.59-142.11-388.99-32.77-732.11-360.43-285.48-272.57-408.29-462.22-400.69-920.16 3.24-195.58 74.98-663.44 148.73-806.43-131.48 182.7-260.14 449.08-339.07 714.76-97.96 329.82-99.37 597.69 17.59 913.1 100.88 271.98 366.12 775.28 511.24 1085.59 30.33 64.85 133.94 340.12 164.63 369.5z" class="fil2"/>
      <path d="M6859.96 7026.63c-46.13 23.81-345.71 236.83-362.92 262.92 743.64-203.77 1541.36-192.65 2174.77-657.42 50.87-37.32 114.04-77.93 156.89-123.34 32.21-34.12 40.32-37.36 74.03-65.93 27.4-23.21 43.07-48.52 69.4-70.75l135.51-153.89c77.54-100.88 213.36-315.91 266.85-433.9 36.51-80.57 31.58-99.16 40.92-78.74l46.76-372.19c-28.09 13.89-54.12 42.77-72.01 65.48-398.69 506.58-1255.64 937.17-1828.53 1261.73-117.45 66.54-235.29 123.19-355.81 186.03l-345.86 180z" class="fil3"/>
      <path d="M9083.27 7295.88 8733 7524.36c-459.27 275.47-638.41 362-1181.92 555.06-391.83 139.18-997.14 261.1-1429.62 306.3l-492.23 54.87c-34.09-6.25 4.8 11.61-19.97-8.98-59.57 72.49-100.44 266.7-139.14 371.5 15.35 43.89-20.27 19.16 29.01 31.29-16.78-18.94 19.44-42.88 32.93-64.22 18.66-29.52 9.69-72.25 19.51-108.61 11.13-41.13 19.38-45.77 33.15-98.96 16.9-65.21 27.8-17.47 23.39-86.22l177.89 14.7c52.61 5.3 33.13-4.76 64.77 25.75-28.59 0-75.88-2.67-102.3 1.7-38.5 6.39-24.69 16.98-84.4 16.98l-34.93 95.97c-19.67 37.64-24.85 63.41-29.61 105.58-4.1 36.51-7.69 19.15 27.19 41.29-36.67.78-27.28 1.26-52.92 9.34-8.97 36.57 3.69-8.71-2.72 21.57l-9.69 31.36c63.89 1.27 155.46-13.06 216.8 5.05 3.78 1.11-16.77 10.23 25.29 5.99 26.8-2.71 15.69.36 28.62-17.27h-46.68c2.36-25.4 1.02-17.58 12.55-17.79 1.4-.03 6.06 1.71 7.75 1.96 31.47 4.82 101.38-2.76 135.34 7.25 36.85 10.86 2.49 16.08 68.39 17.92-2.26-2.15-5.25-7.94-6.1-9.09-13.98-18.69-.9-18.94-49.9-18.94 2.3-26.49 18.71-20.91 74.75-13.45 69.68 9.31 8.56 11.44 58.13 17.46 62.66 7.6 6.16-7.56 63.14-13.35l-26.72-10.61c-1.92-.77-4.92-1.92-6.72-2.63l-13.22-5.43c55.03-19.4 115.02-2.67 170.83-23.02 16.08-5.87-8.96-4.13 26.8-8.31 16.33-1.9 36.86 1.78 54.76-.77 57.73-8.17 32.86-15.35 93.15-17.69l148.99-32.5c57.16-19.62 55.01 3.27 105.7-15.65 46.71-17.44 52.85.07 98.17-12.66l40.98-13.72c62.37-8.14 61.18-17.81 101.15-19.9l387.51-81.27c5.49-1.63 16.98-6.54 20.47-7.75l795.8-316.28c1.25-.63 13.57-6.77 18.67-9.34l76.96-33.86c38.64-11.78 39.38-21.36 60.53-34.23 69.03-42.13 33.55-35.51 59.11-66.09l50.78-49.52c1.36-1.35 3.26-3.34 4.61-4.68l37.35-37.32c55.16-54.2 40.66-59.48 60.38-80.33.98-1.04 3.22-2.94 4.31-4.01 1.19-1.17 3.36-3.15 4.61-4.34l24-23.34c4.78-4.67 11.95-11.46 14.37-13.84 4.68-4.58 8.96-7.81 14.6-14.31 1.34-1.57 3.26-3.68 4.51-5.28l40.65-59.76c25.41-23.89 74.75-62.45 41.14-99.84l-755.44 380.16c-42.15 13.14-117.74 8.75-159.39 5.82 16.57-38.34.46-40.03 108.88-40.41-20.05 21.72-13.2-15.64-18.61-31.12 25.88 0 35.41 1.34 57.69-3.78l50.19-14.12c36.74-9.57 49.02-24.65 97.42-25.69l-6.18-18.69c2.61-1.22 6.7-5.19 8.23-2.76 1.54 2.44 6.12-1.99 8.2-2.59 45.58-13.04 67.66-32.79 120.44-32l-3.45-4.45c.38-.81-27.43 17.53 3.34-5.37 18.25-13.57 6.64-8.87 40.6-8.87-56.77 17.52-30.57-11.14-37.34-18.68 14.47 0 24.42 1.65 37.03-2.56 53.97-17.99 6.25-34.8 109.19-34.8l13.67-29.18c.68-.98 1.98-3.4 2.67-4.39.71-1.04 1.86-3.59 2.63-4.65.77-1.09 2.01-3.64 2.88-4.72 23.69-29.54 69.43-27.09 100.15-36.99 2.84-.92 10.68-3.99 13.48-5.06l61.99-26.71c1.02-.55 3.27-1.93 4.22-2.49l253.77-153.68c1.88-1.15 4.21-2.59 6.12-3.68l138.01-94.82c1.84-1.34 3.95-3.11 5.89-4.37 2.3-1.54 22.69-11.51 26.26-12.99l68.32-30.31c-1.15 75.91-23.39 85.54-62.27 132.45-13.15 15.87-34.4 57.83-49.75 63.68 6.77 19.22 14.46 17.06 22.25 24.64 67.34-101.42 187.08-250.15 235.35-378.6-41.57 5.01-51.24 11.44-86.87 29.57z" class="fil4"/>
      <path d="M2750.92 6704.12c-33.79-68.94-321.48-234.47-380.13-272.19-141.76-91.15-243.04-169.66-376.65-258.22-130.87-86.74-253.29-168.28-376.6-258.26l-333.89-263.98c-22.31-22.35-6.33-2.24-18.8-23.59 63.79 18.87 117.48 56.13 182.34 84.49l516.25 249.41c180.23 94.59 467.25 273.09 643.01 384.04 110.8 69.93 197.96 133.54 311.38 202.09 112.35 67.89 213.62 131.17 312.98 200.45 74.92 52.22 541.48 398.22 606.4 425.06-18.3-69.4-186.58-297.73-230.09-327.39l-163.79-160.85c-26.38-29.32-46.76-56.48-74.84-83.65-31.43-30.37-63.57-44.17-84.11-89.52-28.71-12.22-209.8-171.25-259.82-210.99-263.21-209.04-566.84-390.23-880.22-538.79-336.73-159.6-344.03-147.73-679.77-263.24-120.65-41.52-230.93-86.84-352.97-123.71-111.43-33.67-324.91-126.07-340.05-129.26 34.4 87.22 340.24 365.95 428.24 433.85 175.19 135.12 308.99 238.53 494.42 364.66 171.02 116.34 335.81 226.58 518.09 340.83 125.26 78.51 421.11 279.83 538.62 318.76z" class="fil8"/>
      <path fill="#346b7e" d="M4522.66 3105.34c23.08 20.47 8.61-.81 15.33 31.83.07.31.09 34.67 0 37.01-6.16 147.65 20.78 284.6 113.73 396.8 78.74 95.06 211.91 189.84 396.09 195.98 193.2 6.45 327.73-86.61 401.5-191.01 152.37-215.71 89.61-415.55 123.8-455.45-68.7-172.64-280.16-328.71-525.01-331.17-275.91-2.76-432.24 134.42-525.44 316.01z"/>
      <path d="m3279.58 2988.61-51.19-271.8-19.43.06c-16.69 38.33-12.34 26.74-9.33 65.33-32.65-26.29-18.51-2.04-29.01-46.18-9.17-38.59 1.31-101.52 1.1-140.58 22.64 8.43-9.29 39.64-15.83 65.54-.48 1.94-7.37 48.06-7.43 49.23-.05.98-10.7 10.98 4.49 25.38l-33.78-29.41c-31.29-42.92-9.52-13.6-24.23-50.15-13.86-34.44-14.81-26-24.02-32.35-22.62-15.61-32.01-38.25-42.29-61.28-.29-.67-1.44-2.82-1.75-3.49l-21.69-43.18c-.58-.85-2.56-2.75-3.13-3.52-27.21-36.58 10.22-.01-17.04-47.58-33.67 14.82-9.96 3.82-17.98-.42l-21.77-18.2c-.14-26.23 19.55-57.95-22.49-95.51l-22.06-18.13c-27.69-49.04 12.91-63.1-10.42-102.15l-24.27-157.4c-2.22-91.61 7.16-182.28 30.78-264.99l23.38-55.58c.96-1.98 2.31-4.22 3.19-6.23 1.17-2.69 4.03-10.54 4.95-13.4l25.3-90.92c.35-1.4.79-4.08 1.14-5.47 6.42-26.3 31.4-50.49 43.8-83.97l7.38-21.95c5.38-16.21 1.6-70.99 30.03-97.31l5.01-70.39c70.39-33.79 12.08-.63 60.58-71.62l9.39-12.45c-15.26-42.67 17.63 20.76-7.85-10.59-17.59-21.63-9.06 8.46-15.46-17.42.86-.96 10.47-13.93 12.18-16.48l15.35-21.86c.73-.67 2.95-2.07 3.76-2.72l25.53-24.5c15.89-23.91 32.68-37.2 42.02-64.08l.67-42.46c-.82-24.31-6.39-12.11 6.24-30.95 11.87-17.72 31.31-17.42 52.89-21.16 2.38-33.77-1.84-5.73 1.56-29.45 3.12-21.89-.5-27.63 17.11-35.93-2.23-51.08-19.34 9.13 17.84-10.02 31.95-16.44 32.41-23.08 38.22-46.01l51.32 4.69c-47.29 33.21-.73-35.88-9.44 14.67l.5 10.94c3.17 12.76-17.34-26.84 5.74 11.49l31.29 29.89c2.17 1.21 4.6 2.34 6.85 3.36l35.09 9.06c-32.02 8.76-32.54-9.19-15.66 30.92 16.2 38.45-4.66 24.89 43.67 20.42l3.19 19.74c.13.73.21 3.3.28 4.14l5.78 35.75c15.19 49.03-9.98 104.42-30.54 75.82l2.57 144.75c-32.04 8.27-20.48 1.77-52.48 9.42l5.82 51.36c8.69-7.46 39.85 5.09 46.66 9.29-4.01 43.34-14.82 58.98-18.61 112.08-20.4 10.98 4.12 5.28 9.28 28.01 8.02 35.42-3.05 103.84-7.63 116.4l-11.04 47.07c-.17-.45-26.32-1.85 2.46-13.42 54.39-21.87 2.3-5.04 23.21 8.73 4.65 57.48-4.83 125.61-3.93 186.8.54 37.41-7.75 64.63-6.83 93.56 3.19 100.25 16.37 127.9 6.85 241.76-.92 11.11-4.41 26.83-6.77 37.36-19.8 89.08-5.39 310.92-5.6 421.26-.12 57.08 4.24 119.66 5.41 159.32.63 21.5-2.02 69.47-14.24 95.58-1.34 2.9-2.99 4.49-4.43 7.41-14.16 28.41-34.4 3.3-15.6 49.4 1.71-1.86 4.22-7.27 4.99-5.7.77 1.55 3.86-4.37 4.89-5.68l31.54-45.18c367.45-564.31 627.55-1048.06 217.01-1708.43-58.13-93.51-276.29-422.97-369.61-444.49-71.83 53.58-237.98 376.09-297.57 498.1-190 388.99-290.66 880.08-78.18 1271.28 41.09 75.69 282.58 410.94 362.32 446.77z" class="fil3"/>
      <path d="M5790.83 8124.74c-5.64 22.98-18.57 25.06-66.38 116.46-1.05 2.01-2.44 4.33-3.43 6.33-.96 1.94-2.33 4.33-3.21 6.27-11.68 25.86-10.65 20.13-7.08 42.13 48.73-17.8 25.6-62.37 75.48-104.31l94.85-91.63c1.15-1.25 2.57-3.57 3.8-4.78 1.29-1.24 2.82-3.47 4.26-4.66 14.49-11.99 10.42-14.04 64.27-20.11-3.43 62.95-25.59 58.19-59.11 97.05l-54.75 48.21c-39.26 44.16 5.54 22.79-35.5 39.64.31 30 16.46 37.47-2.78 59.8 15.04-17.35 16.79-23.89 42.13-32.1 2.25-.71 4.86-1.36 7.22-1.84 50.17-10.3 79.18.54 121.63-11.22l92.54-5.89c66.65-3.02 60.74 4.87 56.75-18.06 46.37 0 107.3-11.51 153.27 2.98 53.32 16.78-34.72-4.8 14.72 6.83 9.05-71.3 26.99 1.2 56.04-37.82 7.17 7.29 22.5 30.93 9.28 37.82 30.15.95 70.63 9.01 84.08-9.81l-.64 4.64c-10.59-10.78-10.63 20.34-18.03-41.99 30.2 0 62.16 7.46 74.67-9.35l10.61 17.69c2.61 6.56 9.55 16.12-1.32 20.15l28.04-47.18c24.56 0 60.69 2.21 84 .61 30.2-2.05 36.36-13.48 64.96-17.84 13.36-2.03 23.98-.15 35.75-1.8 30.92-4.28 5.83-.31 29.91-11.86 28.05-13.47-12.24-5.28 26.36-9.13.75-.08 28.99 3.11 37.74 2.38 59.66-4.91-28.99-4.28 48.23-20.13 25.57-5.24 44.45 4.01 74.11-10.38l49.98-7.81c12.43.46 13.97 3.04 27.26-.74 38.26-10.86-35.82 28.01 20.88-12.53l26.86.46c4.83 1.03-2.34 11.55 33.25.21l20.68-8.37c2.86-.82 5.26-1.51 8.23-2.24l145.27-29.39c2.59-1.06 34.61-15.18 47.16-18.96l58.46-16.67c35.65-12.22 65.31-12.2 98.81-29.59l90.88-33.26c119.99-31.58 149.69-55.47 261.1-93.94l35.34-10.91c1.99-.75 4.45-1.75 6.41-2.54 1.93-.76 4.35-1.9 6.27-2.7l198.84-90.12c1.88-.99 4.26-2.26 6.16-3.24 1.9-1 4.3-2.22 6.2-3.2l103.35-55.68c87.68-24.4 87.12-34.96 165.38-76.42l69.2-41.32c-69.87-1.96-19.66 6.94-38.71-18.75 2.95 2.42 29.85-3.22-3.34 21.89l-15.33 6.14c-.04.06 36.18 15.2-12.24 4.38-32.02-7.14-5.16 11.32-25.12-13.72 2.98 2.4 29.86-3.22-3.32 21.89-1.4 1.06-5.67 2.38-7.07 3.21-1.56.92-5.36 2.66-8.27 2.93-.02.06 36.18 15.2-12.23 4.38-32.02-7.16-5.16 11.31-25.11-13.72 7.41 5.98 18.78-12.68 2.26 20.03-9.74 19.28-22.12 20.81-43.36 10.32-23.88-11.78-12.1-7.79-5.67-11.63-8.75 40.68-37.9 40.5-53.57 28.26-24.33-19.01-9.65-5.29-2.44-9.59-3.91 18.55-6.29 26.04-27.91 27.97-.02.08 36.2 15.22-12.22 4.4-32.02-7.16-5.16 11.32-25.12-13.72 7.54 6.1 22.18-3.4-.61 24.36-12.91 15.7-52.82 15.01-64.48 1.58-15.26-17.52-11.09-.83-.35-7.22-5.62 26.17-34.82 45.88-68.99 29.88-24.16-11.3-12.11-7.37-5.68-11.21l-11.11 23.5c-12.93 15.22-41.63 13.99-57.88 6.39-24.16-11.32-12.13-7.38-5.68-11.2-5.64 26.17-34.84 45.87-69.01 29.87-24.14-11.3-12.11-7.37-5.68-11.2-8.39 38.96-53.11 45.56-87.66 29.87-.56-.25-2.8-1.56-3.22-1.86-18.94-13.34-10.4-4.61-2.46-9.33-8.38 38.97-53.11 45.57-87.66 29.88-.57-.27-2.8-1.58-3.22-1.87-18.94-13.35-10.4-4.6-2.48-9.32l-25.03 33.71c-7.89 2.95-57.43 4.24-67.98-7.81-15.29-17.5-11.05-.84-.33-7.23-12.58 58.51 17.64 32.57-72.21 32.61-24.46.02-38.7 7.6-56.02-4.6-25.16-17.73-8.85-5.53-2.46-9.33-12.41 57.75 26.3 29.44-108.86 33.62-2.07.07-8.4.84-10.76.65-24.66-2.05-25.15 1.71-38.99-15.64 56.31 45.57-109.8 33.77-127.97 33.67-29.6-.15-42.63 5.2-58.72-14.98 7.5 6.06 22.25-3.36-.62 24.37-11.55 13.98-142.72 14.77-167.22 6.94l-9.28-5.41c-14.97-17.59-11.29-.67-.33-7.17-10.96 50.97-82.19 35.49-124.34 33.13l-22.55-5.14c-18.93-13.34-10.4-4.61-2.47-9.33-5.32 24.73 37.76 49.5-110.63 32.91-15.69-1.75 7.95 13.08-17.59-4.9-25.17-17.72-8.86-5.52-2.47-9.32l-25.04 33.71c-7.87 2.95-57.42 4.24-67.98-7.81-15.29-17.48-11.03-.84-.32-7.21-5.85 27.18-49.66 54.27-74.35 25.9-15.25-17.54-11.09-.83-.34-7.24-5.84 27.21-49.66 54.3-74.33 25.92-15.25-17.53-11.11-.82-.34-7.23-5.86 27.21-49.66 54.28-74.35 25.9-15.23-17.51-11.09-.82-.32-7.23-8.75 40.69-37.9 40.52-53.59 28.26-24.33-19.01-9.65-5.28-2.44-9.57-4.89 22.81 8.21-4.86-7.13 16.88-14.72 20.84-39.79 23.31-61.86 12.99-24.15-11.3-12.1-7.37-5.68-11.19-2.43 11.53 1.12 16.85-11.07 24.93-1.65 1.11-6.08 1.68-7.67 2.51-1.82.94-6.12.25-9.17.54-4.93 13.04 40.35-8.18-12.49 3.99l-80.54 28.03c-14.03 8.28-3.04 17.71-25.66 6.14-29.16-14.91-3.06-3.84-3.51-4.65l.75-5.45c-4.26 19.77 3.7 9.92-11.64 25.06-1.25 1.21-3.44 4.11-4.84 4.99-1.9 1.19-9 2.92-10.88 2.47-1.78-.4-27.16 18.04-10.87-36.93.82-2.76 9.55-15.71 10.87-17.74 20.3-31.32 26.92-19.67 77.65-39.8 70.77-28.06 229.07-58.63 250.89-68.58 62.43-28.48 155.79-50.92 221.75-61.26l395.51-55.28c132.07-20.66 276.16-32.84 407.2-33.07-1.52 1.7 4.56 23.48-9.96 4.96-14.16-18.05-7.04 7.14.58-12.03 108.45-19.55 214.68-7.88 310.92-48.92 40.02-17.05 115.92-14.6 146.4-27.8 11.55-5.01-8.3 1.13 20.27-8.73l113.67-28.85c44.18-12.93 77.82-12.21 125.78-31.56 69.99-28.23 153.16-32.33 225.74-57.12l124.48-50.13c61.7-31.72 156.53-14.14 210.23-50.08 86.74-58.05 66.39-35.32 146.24-62.47 48.84-16.59 13.02-9.99 50.74-3.7 2.9.48 6.6 1.54 9.73 2.82l.08-37.35c15.81-6.28 43.53-16.71 54.95-22.72l69.5-32.19c1.6-1.02 3.71-2.78 5.28-3.86 1.63-1.09 3.72-2.9 5.37-4.01l46.28-28.7c1.55-1.09 3.86-2.74 5.35-3.88 1.46-1.09 3.69-2.95 5.03-4.04 1.32-1.08 3.59-3.25 4.74-4.24l8.88-8.43c18.71 8.56-18.07-18.18 22.18-31.84 59.32-20.11 19.07-3.13 33.73-.89.55 2.32.25 3.86.17 7.18l-9.5 44.22c1.06-46.5-7.06 2.88 18.71-18.67 22.62 21.09 8.34-5.12 11.99 30.51 35.63-18.13 45.3-24.56 86.87-29.57l89.01-199.45c-259.51 133.88-497.26 264.17-787.06 354.9-144.7 45.29-285.54 96.1-432.33 138.8-589.54 171.53-943.46 140.02-1457.34 230.23-208.99 36.69-673.35 126.88-791.59 333.95z" class="fil10"/>
      <path d="M697.49 5700.42c94.61 129.52 159.76 361.42 309.51 546.02l135.97 144.1c135.91 128.59 160.04 148 310.8 258.57 333.16 244.33 826.31 386.3 1244.66 464.56 262.15 49.04 443.01 61.99 721.19 126.74 78.12 18.17 152.89 48.97 220.52 62.93-21.93-23.71-129.14-112.96-157.02-119.33l-115.42-40.06c-2.21 3.16-4.7 7.42-5.95 9.92l-3.39 18.09c-24.43 0-12.92-.31-27.13-4.55-1.52-.46-4.09-1.57-5.57-2.09-1.38-.48-3.74-1.75-5.08-2.24-35.63-12.99-83.75 4.77-138.66-14.89l-196.96-32.25c2.73 1.49.58 32.5 3.09-3.65l-3.12-15.04c-62.65-17.25-46.91 16.29-184.23-13.83-13.92-3.05-64.42 3.6-86.45-23.52h-93.33c.48.8 2.7.24 2.84.17.09-.08 2.22-.39 2.28-.52 4.89-11.36 4.37-9.94-21.3-16.42-15.1-3.8-50.61-1.92-67.84-1.92l-3.64-10.17c-.46-4.28-3.82-5.66-5.7-8.5-29.03 0-33.79 1.75-54.93-5.08l-29.11-10.44c-14.79-3.32-14.08-1.61-26.64-3.36-45.38-6.33-56.39-18.49-104.01-18.49l-3.65-10.17c-.46-4.28-3.83-5.66-5.69-8.5-14.1 0-28.86 1.3-42.69-1.21l-20.15-6.37c-32.92-9.65-52.74 14.83-39.9-29.79l-121.1-3.53c-.16-.96-.71 2.45-.25 3.53-6.64-22.82-3.11-23.55-28.74-30.39-49.73-13.28-23.06-17.14-36.55 11.72-7.54-38.39-11.53-24.5-31.22-35.8l-50.99-25.17c-2.61-1.29-10.06-5.13-12.74-6.37l-283.14-128.86c.25-43.09-3.96-2.8 19.43-31.21 29.82-36.24 13.09-239.02 12.99-295.69-.06-45.72 8.9-74.08 9.57-112.1l94.21 57.56c2.01 1.01 4.39 2.28 6.46 3.16 44.4 18.73 66.23-25.52 84.02 21.26l7.61 22.27c.48-1.49 1.63 5.84 3.72 7.83-6.77-32.77-6.65-14.18 13.2-11.59 20.92 2.75 20.9 54.85 81.45 58.48 68.09 4.07 104.71 4.28 73.48 55.85 58.11 12.91 30.98 11.95 72.88 40.58l112.84 55.5c16.4 8.52 11.1 4.15 22.19 13.62 7.68 6.57 11.82 13.91 17.04 19.36l139.02 39.1c18.61 46.55 21.53 23.95 51.59 42.61 1.59 1 3.72 2.69 5.26 3.76l66.02 41.96c87.02 24.2 70.35-36.03 73.15-69.12-176.8-73.56-902.17-497.7-1058.11-594.76-165.96-103.29-344.13-223.45-485.99-335.75-82.44-65.25-148.67-117.17-224.9-185.85-95.04-85.66-164.78-199.72-192.18-210.74 5.87 112.16 9.25 257.82 56.48 350.07zm6078.3 861.11-261.16 298.37 15.68 20.59c15.33-17.23 42.69-34.42 58.76-5.1l-28.81 72.58 1124.72-705.46c95.12-59.23 177.72-120.09 277.33-180.16 170.56-102.83 757.93-432.21 902.07-447.67-31.91 32.44-128.04 94.83-144.08 124.63 15.84-4.67 29.31-10.52 42.22-18.33 1.75-1.05 3.98-2.57 5.64-3.66l34.48-29.18c34.71-32.58 39.54-22.8 66.11-19.17 2.12 34.07 9.54.19-6.96 38.51 59.09-24.79 156.4-130.52 195.96-164.77 22.89-19.82 38.01-32.12 59.94-52.24 42.65-39.14 197.54-187.85 212.5-251.09-40.65 9.71-125.8 44.36-176.83 63.36-844.42 314.33-1357.01 451.9-2115.88 1039.13-95.62 74-178.85 153.93-261.69 219.66z" class="fil8"/>
      <path d="M3228.39 2716.81c-41.13-547.06 20.28-555.5 81.81-1001.59 15.85-114.82 19.74-219.64 31.29-333.68 78.91 81.77 60.67 646.58 54.82 793.74-8.73 219.98-20.73 404.1-14.95 626.01 1.48 56.67 22.93 157.47 12.72 203.67l10.11-23.02c-18.8-46.1 1.44-20.99 15.6-49.4 1.44-2.92 3.09-4.51 4.43-7.41 12.22-26.11 14.87-74.08 14.24-95.58-1.17-39.66-5.53-102.24-5.41-159.32.21-110.34-14.2-332.18 5.6-421.26 2.36-10.53 5.85-26.25 6.77-37.36 9.52-113.86-3.66-141.51-6.85-241.76-.92-28.93 7.37-56.15 6.83-93.56-.9-61.19 8.58-129.32 3.93-186.8-20.91-13.77 31.18-30.6-23.21-8.73-28.78 11.57-2.63 12.97-2.46 13.42l11.04-47.07c4.58-12.56 15.65-80.98 7.63-116.4-5.16-22.73-29.68-17.03-9.28-28.01 3.79-53.1 14.6-68.74 18.61-112.08-6.81-4.2-37.97-16.75-46.66-9.29l-5.82-51.36c32-7.65 20.44-1.15 52.48-9.42l-2.57-144.75c20.56 28.6 45.73-26.79 30.54-75.82l-5.78-35.75c-.07-.84-.15-3.41-.28-4.14l-3.19-19.74c-48.33 4.47-27.47 18.03-43.67-20.42-16.88-40.11-16.36-22.16 15.66-30.92l-35.09-9.06c-2.25-1.02-4.68-2.15-6.85-3.36l-31.29-29.89c-23.08-38.33-2.57 1.27-5.74-11.49l-.5-10.94c8.71-50.55-37.85 18.54 9.44-14.67l-51.32-4.69c-5.81 22.93-6.27 29.57-38.22 46.01-37.18 19.15-20.07-41.06-17.84 10.02-17.61 8.3-13.99 14.04-17.11 35.93-3.4 23.72.82-4.32-1.56 29.45-21.58 3.74-41.02 3.44-52.89 21.16-12.63 18.84-7.06 6.64-6.24 30.95l-.67 42.46c-9.34 26.88-26.13 40.17-42.02 64.08l-25.53 24.5c-.81.65-3.03 2.05-3.76 2.72l-15.35 21.86c-1.71 2.55-11.32 15.52-12.18 16.48 6.4 25.88-2.13-4.21 15.46 17.42 25.48 31.35-7.41-32.08 7.85 10.59l-9.39 12.45c-48.5 70.99 9.81 37.83-60.58 71.62l-5.01 70.39c-28.43 26.32-24.65 81.1-30.03 97.31l-7.38 21.95c-12.4 33.48-37.38 57.67-43.8 83.97-.35 1.39-.79 4.07-1.14 5.47l-25.3 90.92c-.92 2.86-3.78 10.71-4.95 13.4-.88 2.01-2.23 4.25-3.19 6.23l-23.38 55.58c-23.62 82.71-33 173.38-30.78 264.99l24.27 157.4c23.33 39.05-17.27 53.11 10.42 102.15l22.06 18.13c42.04 37.56 22.35 69.28 22.49 95.51l21.77 18.2c8.02 4.24-15.69 15.24 17.98.42 27.26 47.57-10.17 11 17.04 47.58.57.77 2.55 2.67 3.13 3.52l21.69 43.18c.31.67 1.46 2.82 1.75 3.49 10.28 23.03 19.67 45.67 42.29 61.28 9.21 6.35 10.16-2.09 24.02 32.35 14.71 36.55-7.06 7.23 24.23 50.15l33.78 29.41c-15.19-14.4-4.54-24.4-4.49-25.38.06-1.17 6.95-47.29 7.43-49.23 6.54-25.9 38.47-57.11 15.83-65.54.21 39.06-10.27 101.99-1.1 140.58 10.5 44.14-3.64 19.89 29.01 46.18-3.01-38.59-7.36-27 9.33-65.33l19.43-.06z" class="fil3"/>
      <path d="M5790.83 8124.74c-47.85 2.99-17.74 6-27.84-15.56-47.15 69.51-136.6 213.54-153.73 322.43 24.77 20.59-14.12 2.73 19.97 8.98l492.23-54.87c432.48-45.2 1037.79-167.12 1429.62-306.3 543.51-193.06 722.65-279.59 1181.92-555.06l350.27-228.48c-3.65-35.63 10.63-9.42-11.99-30.51-25.77 21.55-17.65-27.83-18.71 18.67l9.5-44.22c.08-3.32.38-4.86-.17-7.18-14.66-2.24 25.59-19.22-33.73.89-40.25 13.66-3.47 40.4-22.18 31.84l-8.88 8.43c-1.15.99-3.42 3.16-4.74 4.24-1.34 1.09-3.57 2.95-5.03 4.04-1.49 1.14-3.8 2.79-5.35 3.88l-46.28 28.7c-1.65 1.11-3.74 2.92-5.37 4.01-1.57 1.08-3.68 2.84-5.28 3.86l-69.5 32.19c-11.42 6.01-39.14 16.44-54.95 22.72l-.08 37.35c-3.13-1.28-6.83-2.34-9.73-2.82-37.72-6.29-1.9-12.89-50.74 3.7-79.85 27.15-59.5 4.42-146.24 62.47-53.7 35.94-148.53 18.36-210.23 50.08l-124.48 50.13c-72.58 24.79-155.75 28.89-225.74 57.12-47.96 19.35-81.6 18.63-125.78 31.56l-113.67 28.85c-28.57 9.86-8.72 3.72-20.27 8.73-30.48 13.2-106.38 10.75-146.4 27.8-96.24 41.04-202.47 29.37-310.92 48.92-7.62 19.17-14.74-6.02-.58 12.03 14.52 18.52 8.44-3.26 9.96-4.96-131.04.23-275.13 12.41-407.2 33.07L6523 7876.75c-65.96 10.34-159.32 32.78-221.75 61.26-21.82 9.95-180.12 40.52-250.89 68.58-50.73 20.13-57.35 8.48-77.65 39.8-1.32 2.03-10.05 14.98-10.87 17.74-16.29 54.97 9.09 36.53 10.87 36.93 1.88.45 8.98-1.28 10.88-2.47 1.4-.88 3.59-3.78 4.84-4.99 15.34-15.14 7.38-5.29 11.64-25.06l-.75 5.45c.45.81-25.65-10.26 3.51 4.65 22.62 11.57 11.63 2.14 25.66-6.14l80.54-28.03c52.84-12.17 7.56 9.05 12.49-3.99 3.05-.29 7.35.4 9.17-.54 1.59-.83 6.02-1.4 7.67-2.51 12.19-8.08 8.64-13.4 11.07-24.93-6.42 3.82-18.47-.11 5.68 11.19 22.07 10.32 47.14 7.85 61.86-12.99 15.34-21.74 2.24 5.93 7.13-16.88-7.21 4.29-21.89-9.44 2.44 9.57 15.69 12.26 44.84 12.43 53.59-28.26-10.77 6.41-14.91-10.28.32 7.23 24.69 28.38 68.49 1.31 74.35-25.9-10.77 6.41-14.91-10.3.34 7.23 24.67 28.38 68.49 1.29 74.33-25.92-10.75 6.41-14.91-10.3.34 7.24 24.69 28.37 68.5 1.28 74.35-25.9-10.71 6.37-14.97-10.27.32 7.21 10.56 12.05 60.11 10.76 67.98 7.81l25.04-33.71c-6.39 3.8-22.7-8.4 2.47 9.32 25.54 17.98 1.9 3.15 17.59 4.9 148.39 16.59 105.31-8.18 110.63-32.91-7.93 4.72-16.46-4.01 2.47 9.33l22.55 5.14c42.15 2.36 113.38 17.84 124.34-33.13-10.96 6.5-14.64-10.42.33 7.17l9.28 5.41c24.5 7.83 155.67 7.04 167.22-6.94 22.87-27.73 8.12-18.31.62-24.37 16.09 20.18 29.12 14.83 58.72 14.98 18.17.1 184.28 11.9 127.97-33.67 13.84 17.35 14.33 13.59 38.99 15.64 2.36.19 8.69-.58 10.76-.65 135.16-4.18 96.45 24.13 108.86-33.62-6.39 3.8-22.7-8.4 2.46 9.33 17.32 12.2 31.56 4.62 56.02 4.6 89.85-.04 59.63 25.9 72.21-32.61-10.72 6.39-14.96-10.27.33 7.23 10.55 12.05 60.09 10.76 67.98 7.81l25.03-33.71c-7.92 4.72-16.46-4.03 2.48 9.32.42.29 2.65 1.6 3.22 1.87 34.55 15.69 79.28 9.09 87.66-29.88-7.94 4.72-16.48-4.01 2.46 9.33.42.3 2.66 1.61 3.22 1.86 34.55 15.69 79.27 9.09 87.66-29.87-6.43 3.83-18.46-.1 5.68 11.2 34.17 16 63.37-3.7 69.01-29.87-6.45 3.82-18.48-.12 5.68 11.2 16.25 7.6 44.95 8.83 57.88-6.39l11.11-23.5c-6.43 3.84-18.48-.09 5.68 11.21 34.17 16 63.37-3.71 68.99-29.88-10.74 6.39-14.91-10.3.35 7.22 11.66 13.43 51.57 14.12 64.48-1.58 22.79-27.76 8.15-18.26.61-24.36 19.96 25.04-6.9 6.56 25.12 13.72 48.42 10.82 12.2-4.32 12.22-4.4 21.62-1.93 24-9.42 27.91-27.97-7.21 4.3-21.89-9.42 2.44 9.59 15.67 12.24 44.82 12.42 53.57-28.26-6.43 3.84-18.21-.15 5.67 11.63 21.24 10.49 33.62 8.96 43.36-10.32 16.52-32.71 5.15-14.05-2.26-20.03 19.95 25.03-6.91 6.56 25.11 13.72 48.41 10.82 12.21-4.32 12.23-4.38 2.91-.27 6.71-2.01 8.27-2.93 1.4-.83 5.67-2.15 7.07-3.21 33.18-25.11 6.3-19.49 3.32-21.89 19.96 25.04-6.9 6.58 25.12 13.72 48.42 10.82 12.2-4.32 12.24-4.38l15.33-6.14c33.19-25.11 6.29-19.47 3.34-21.89 19.05 25.69-31.16 16.79 38.71 18.75l-69.2 41.32c-78.26 41.46-77.7 52.02-165.38 76.42l-103.35 55.68c-1.9.98-4.3 2.2-6.2 3.2-1.9.98-4.28 2.25-6.16 3.24l-198.84 90.12c-1.92.8-4.34 1.94-6.27 2.7-1.96.79-4.42 1.79-6.41 2.54l-35.34 10.91c-111.41 38.47-141.11 62.36-261.1 93.94l-90.88 33.26c-33.5 17.39-63.16 17.37-98.81 29.59l-58.46 16.67c-12.55 3.78-44.57 17.9-47.16 18.96l-145.27 29.39c-2.97.73-5.37 1.42-8.23 2.24l-20.68 8.37c-35.59 11.34-28.42.82-33.25-.21l-26.86-.46c-56.7 40.54 17.38 1.67-20.88 12.53-13.29 3.78-14.83 1.2-27.26.74l-49.98 7.81c-29.66 14.39-48.54 5.14-74.11 10.38-77.22 15.85 11.43 15.22-48.23 20.13-8.75.73-36.99-2.46-37.74-2.38-38.6 3.85 1.69-4.34-26.36 9.13-24.08 11.55 1.01 7.58-29.91 11.86-11.77 1.65-22.39-.23-35.75 1.8-28.6 4.36-34.76 15.79-64.96 17.84-23.31 1.6-59.44-.61-84-.61l-28.04 47.18c10.87-4.03 3.93-13.59 1.32-20.15l-10.61-17.69c-12.51 16.81-44.47 9.35-74.67 9.35 7.4 62.33 7.44 31.21 18.03 41.99l.64-4.64c-13.45 18.82-53.93 10.76-84.08 9.81 13.22-6.89-2.11-30.53-9.28-37.82-29.05 39.02-46.99-33.48-56.04 37.82-49.44-11.63 38.6 9.95-14.72-6.83-45.97-14.49-106.9-2.98-153.27-2.98 3.99 22.93 9.9 15.04-56.75 18.06l-92.54 5.89c-42.45 11.76-71.46.92-121.63 11.22-2.36.48-4.97 1.13-7.22 1.84-25.34 8.21-27.09 14.75-42.13 32.1 19.24-22.33 3.09-29.8 2.78-59.8 41.04-16.85-3.76 4.52 35.5-39.64l54.75-48.21c33.52-38.86 55.68-34.1 59.11-97.05-53.85 6.07-49.78 8.12-64.27 20.11-1.44 1.19-2.97 3.42-4.26 4.66-1.23 1.21-2.65 3.53-3.8 4.78l-94.85 91.63c-49.88 41.94-26.75 86.51-75.48 104.31-3.57-22-4.6-16.27 7.08-42.13.88-1.94 2.25-4.33 3.21-6.27.99-2 2.38-4.32 3.43-6.33 47.81-91.4 60.74-93.48 66.38-116.46z" class="fil7"/>
      <path d="M5470.12 8803.11c-10.05 45.35-42.59 93.72-36.24 139.07l.89 1.83c373.94-13.99 477.57-26.44 845.49-70.59 129.08-15.48 264.05-46.35 391.6-67.55 423.31-70.33 678.04-114.54 1090.72-281.53 135.01-54.62 559.11-258.45 657.9-273.63 94.18-79.77 179.94-187.86 269.21-293.23 46.42-54.78 84.36-101.78 125.5-154.52 41.9-53.68 77.09-107.29 119.6-158.05-7.79-7.58-15.48-5.42-22.25-24.64 15.35-5.85 36.6-47.81 49.75-63.68 38.88-46.91 61.12-56.54 62.27-132.45l-68.32 30.31c-3.57 1.48-23.96 11.45-26.26 12.99-1.94 1.26-4.05 3.03-5.89 4.37l-138.01 94.82c-1.91 1.09-4.24 2.53-6.12 3.68l-253.77 153.68c-.95.56-3.2 1.94-4.22 2.49l-61.99 26.71c-2.8 1.07-10.64 4.14-13.48 5.06-30.72 9.9-76.46 7.45-100.15 36.99-.87 1.08-2.11 3.63-2.88 4.72-.77 1.06-1.92 3.61-2.63 4.65-.69.99-1.99 3.41-2.67 4.39l-13.67 29.18c-102.94 0-55.22 16.81-109.19 34.8-12.61 4.21-22.56 2.56-37.03 2.56 6.77 7.54-19.43 36.2 37.34 18.68-33.96 0-22.35-4.7-40.6 8.87-30.77 22.9-2.96 4.56-3.34 5.37l3.45 4.45c-52.78-.79-74.86 18.96-120.44 32-2.08.6-6.66 5.03-8.2 2.59-1.53-2.43-5.62 1.54-8.23 2.76l6.18 18.69c-48.4 1.04-60.68 16.12-97.42 25.69l-50.19 14.12c-22.28 5.12-31.81 3.78-57.69 3.78 5.41 15.48-1.44 52.84 18.61 31.12-108.42.38-92.31 2.07-108.88 40.41 41.65 2.93 117.24 7.32 159.39-5.82l755.44-380.16c33.61 37.39-15.73 75.95-41.14 99.84l-40.65 59.76c-1.25 1.6-3.17 3.71-4.51 5.28-5.64 6.5-9.92 9.73-14.6 14.31-2.42 2.38-9.59 9.17-14.37 13.84l-24 23.34c-1.25 1.19-3.42 3.17-4.61 4.34-1.09 1.07-3.33 2.97-4.31 4.01-19.72 20.85-5.22 26.13-60.38 80.33l-37.35 37.32c-1.35 1.34-3.25 3.33-4.61 4.68l-50.78 49.52c-25.56 30.58 9.92 23.96-59.11 66.09-21.15 12.87-21.89 22.45-60.53 34.23l-76.96 33.86c-5.1 2.57-17.42 8.71-18.67 9.34l-795.8 316.28c-3.49 1.21-14.98 6.12-20.47 7.75l-387.51 81.27c-39.97 2.09-38.78 11.76-101.15 19.9l-40.98 13.72c-45.32 12.73-51.46-4.78-98.17 12.66-50.69 18.92-48.54-3.97-105.7 15.65l-148.99 32.5c-60.29 2.34-35.42 9.52-93.15 17.69-17.9 2.55-38.43-1.13-54.76.77-35.76 4.18-10.72 2.44-26.8 8.31-55.81 20.35-115.8 3.62-170.83 23.02l13.22 5.43c1.8.71 4.8 1.86 6.72 2.63l26.72 10.61c-56.98 5.79-.48 20.95-63.14 13.35-49.57-6.02 11.55-8.15-58.13-17.46-56.04-7.46-72.45-13.04-74.75 13.45 49 0 35.92.25 49.9 18.94.85 1.15 3.84 6.94 6.1 9.09-65.9-1.84-31.54-7.06-68.39-17.92-33.96-10.01-103.87-2.43-135.34-7.25-1.69-.25-6.35-1.99-7.75-1.96-11.53.21-10.19-7.61-12.55 17.79h46.68c-12.93 17.63-1.82 14.56-28.62 17.27-42.06 4.24-21.51-4.88-25.29-5.99-61.34-18.11-152.91-3.78-216.8-5.05l9.69-31.36c6.41-30.28-6.25 15 2.72-21.57 25.64-8.08 16.25-8.56 52.92-9.34-34.88-22.14-31.29-4.78-27.19-41.29 4.76-42.17 9.94-67.94 29.61-105.58l34.93-95.97c59.71 0 45.9-10.59 84.4-16.98 26.42-4.37 73.71-1.7 102.3-1.7-31.64-30.51-12.16-20.45-64.77-25.75l-177.89-14.7c4.41 68.75-6.49 21.01-23.39 86.22-13.77 53.19-22.02 57.83-33.15 98.96-9.82 36.36-.85 79.09-19.51 108.61-13.49 21.34-49.71 45.28-32.93 64.22-49.28-12.13-13.66 12.6-29.01-31.29z" class="fil11"/>
      <path d="m3483.12 7184.01-9.9-12.36c-1.46-1.59-3.43-3.97-5.06-5.64l-21.03-17.99c-16.06-12.69-20.28-15.85-36.88-28.02-21.71-15.92-45.98-33.24-71.33-50.03l-154.58-98.1c-7.92 7.16-5.18 19.13-45.14 1-10.92-4.95-24.31-13.89-36.84-20.86-89.96-50.09-480.29-241.29-500.17-274.56-2.8 33.09 13.87 93.32-73.15 69.12l-66.02-41.96c-1.54-1.07-3.67-2.76-5.26-3.76-30.06-18.66-32.98 3.94-51.59-42.61l-139.02-39.1c-5.22-5.45-9.36-12.79-17.04-19.36-11.09-9.47-5.79-5.1-22.19-13.62l-112.84-55.5c-41.9-28.63-14.77-27.67-72.88-40.58 31.23-51.57-5.39-51.78-73.48-55.85-60.55-3.63-60.53-55.73-81.45-58.48-19.85-2.59-19.97-21.18-13.2 11.59-2.09-1.99-3.24-9.32-3.72-7.83l-7.61-22.27c-17.79-46.78-39.62-2.53-84.02-21.26-2.07-.88-4.45-2.15-6.46-3.16l-94.21-57.56c-.67 38.02-9.63 66.38-9.57 112.1.1 56.67 16.83 259.45-12.99 295.69-23.39 28.41-19.18-11.88-19.43 31.21l283.14 128.86c2.68 1.24 10.13 5.08 12.74 6.37l50.99 25.17c19.69 11.3 23.68-2.59 31.22 35.8 13.49-28.86-13.18-25 36.55-11.72 25.63 6.84 22.1 7.57 28.74 30.39-.46-1.08.09-4.49.25-3.53l121.1 3.53c-12.84 44.62 6.98 20.14 39.9 29.79l20.15 6.37c13.83 2.51 28.59 1.21 42.69 1.21 1.86 2.84 5.23 4.22 5.69 8.5l3.65 10.17c47.62 0 58.63 12.16 104.01 18.49 12.56 1.75 11.85.04 26.64 3.36l29.11 10.44c21.14 6.83 25.9 5.08 54.93 5.08 1.88 2.84 5.24 4.22 5.7 8.5l3.64 10.17c17.23 0 52.74-1.88 67.84 1.92 25.67 6.48 26.19 5.06 21.3 16.42-.06.13-2.19.44-2.28.52-.14.07-2.36.63-2.84-.17h93.33c22.03 27.12 72.53 20.47 86.45 23.52 137.32 30.12 121.58-3.42 184.23 13.83l3.12 15.04c-2.51 36.15-.36 5.14-3.09 3.65l196.96 32.25c54.91 19.66 103.03 1.9 138.66 14.89 1.34.49 3.7 1.76 5.08 2.24 1.48.52 4.05 1.63 5.57 2.09 14.21 4.24 2.7 4.55 27.13 4.55l3.39-18.09c1.25-2.5 3.74-6.76 5.95-9.92l115.42 40.06z" class="fil3"/>
      <path d="M4865.58 1103.58c-57.42 79.47-147.34 265.78-161.31 381.01-22.06 182.07 46.14 315.99 136.12 403.28 234.16 227.18 571.53 159.53 777-38.25l8.58 28.87 12.24-38.02c16.98-76.69 17.9-241.46-25.78-286.62l-4.32 37.61c-.39-5.99.98-11.67-4.55-16.96-27.99-26.85 7.71-17.06-23.46-6.43 9.51 111.41 18.67-25.71 18.67 224.16-10 6.97 21.52-6.02-17.62-5.85l-16.8 4.07c-.31-1.08-1.87 1.57-3.02 1.82-9.86-13.83-3.12-11.78-20.99-18.72-1.97-108-.95-46.3-21.75-139.37l-41.58-109.61c-13.14-30.85-3.39.6-10.09-42.01-2.97-18.98-2.76-37.84-16.25-37.53l-69.26 90.4c-27.93 69.09-166.17 42.67-236.81 16.58-34.84-12.87-18.9-14.7-34.59-21.3 5.16-67.47 47.54 43.94 15.69-47.94-7.04-20.34-20.79-14.37-34.3-54.8 6.35-11.55-19.84-9.34 22.14-9.38l-8.17-111.98-29.36 37.25c0-61.68-2.49-57.99 20.95-107.8 22.57-47.89.73 22.89 4.93-10.57.29-2.4 1.71-3.13 2.13-4.84-45.54-1.34 6.35-.88-21.14 6.83l-22.75 4.36c-11.9-48.96-2.9-81.48 34.36-100.86 21.6-11.24 83.21-44.09 72.9-69.26l-5.21-10.36c-1.33-2-16.12-15.83-17.83-17.75-50.51-56.92 20.9 42.82-14.27-20.8l-63.47-80.59c-11.41-9.35 7.69-5.36-26.99-17.89 2.57 33.45.44 82.5-10.27 84.06.66.55 2.54.44 2.55.4l-21.23-9.73c-1.21 2.94-1.88 6.64-2.52 9.23l-4.43 17.82c-19.2 82.52-31.64 72.09-39.77 105.56-8.86-18.15-3.34-16.61-65.35-19.14-1.74 2.49-3.18 6.14-3.87 8.25l-5.93 22.06c-.21 2.34 4.01 15.21 4.24 16.85-7.64-7.37-20.01-9.79-3.82-11.29 0-67.78 5.66-18.57-23.64-34.82z" class="fil7"/>
      <path d="M4618.57 1608.53c30.12 45.39 23.37 83.34 46.52 136.62.91 2.11 2.09 4.43 3.02 6.54.9 2.06 2.03 4.44 2.93 6.49l20.63 50.23c7.19 16.73 20.7 37.31 26.49 64.73 16.25 7.65-9.38-25.84-15.58 31.16 57.69-19.13-33.76-13.32 37.34-18.67 37.12 42.82-16.06 25.86 51.86 68.91l29.33 18.96c81.58 57.83-14.68 2.07 114.85 77.09-1.37 6.1-7.72-8.06-7.77 7.58-.04 7.92-15.2-.73 29.37 22.75 1.29.69 3.7 2.13 5.07 2.84l10.95 6.39c27.09 12.41 7.58 9.65 46.39 10.28l74.67 34.27c52.44 8.34 85.7-2.8 112.35.9l26.75 7.71c2.55.85 5.93 2.25 8.67 3.82 2.74 32.48 4.11 18.98-28.89 41.36-1.81 1.23-12.78 8.31-27.07 14.8l-45.13 14.27c-17.19 2.78-74.02 12.4-74.69 12.38-9.19-.04-50.07-10.75-84.01-14.34-.85 33.1 1.19 21.68-9.33 43.61l-250.22-141.86c-62.62-68.26-75.38-79.23-77.62-100.13-.08-.69.13-3.08.04-3.79-.1-.75-.16-3.25-.31-4.05l-4.95-15.18c-14.81-29.97-20.59-21.43-36.74-38.77-23.75-25.52-10.94-34.13-14.37-58.42-.14-.91-.87-3.3-1.02-4.3l-3.22-35c.4-26.7 2.28-50.38 2.51-63.25l-1.65-154.64c.71-24.17-2.11-25.9 32.83-31.29zm1007.4 269.96-8.58-28.87c-205.47 197.78-542.84 265.43-777 38.25-89.98-87.29-158.18-221.21-136.12-403.28 13.97-115.23 103.89-301.54 161.31-381.01 24.02-30.83 42.4-62.16 58.96-98.02 9.82-21.31 15.54-30.64 25.56-50.71 11.43-22.92 25.99-37.48 3.81-45.43l-306.79 360.44c-185.64 255.87-284.76 522.14-80.12 826.01 99.94 148.38 339.83 318.36 625.89 243.27 208.47-54.72 436.61-277.6 433.08-460.65z" class="fil11"/>
      <path d="M7967.76 4448.88c45.58-25.98 141.97-140 174.99-176.7 101.82-113.22 250.24-233.21 384.63-306.4 39.05-21.28 74.33-36.2 115.98-51.94 33.73-12.72 96.45-23.4 119.91-34.84 17.48-19.68-30.77-37.75 42.77-12.47 22.79 7.83 25.48 31.6 31.83 45.78-16.64 13.26 1.09-.33-18.88 18.09-49.67 45.78-40.5 47.06-83.81 47.33-1.4 2.59-2.72 3.71-3.31 8.21l-48.26 73.35c-1.9 1.34-5.22 3.22-6.83 4.3-1.61 1.09-4.6 2.93-6.9 4.39-27.38-7.58-13.07-.98-20.57-8.86-10.23-10.73 1-6.08 1.86-6.68-1.96 2.42-8.08 11.07-9.11 12.99l-43.06 67.04c-19.66 10.64-26.66 2.13-44.18 18.68-1.06 1.02-3.03 3.15-4.11 4.28l-175.53 162.79c-1.84 1.56-7.94 6.39-9.93 8.16-2.33 2.01-30.15 18.24-34.52 46.71 17.61 4.99 21.99 1.15 34.57-8.11l38.05-38.39c51.05-58.17 103.68-77.36 135.93-115.71l109.53-96.51c28.2-33.07-1.78-25.4 42.84-40.15 0 164.48-29.08-3.26-35.86 174.01-1.9 49.39-7.75 24.91-9.26 65.73l-52.88 37.36c11.88 32.11-12.57-14.99 10.04 16.9 1.32 1.84 6.54 8.61 7.94 10.42l-38.26 34.61c-14.75 10.65-22.62 30.62-46.16 13.74l-12.66-18.02c-1.04-1.67-2.17-5.24-3.36-7.81-.19 39.68 36.15 34.82-83.8 46.03-39.97 3.74-104.35-3.01-129.35 16.21 27.43 21.33 159.51 12.37 200.91-1.88 2.51-.88 4.61-2.07 7.21-2.99 2.75-.98 4.78-2.13 7.66-3.09 71.14-23.85 67.26-5.14 102.6 14.89 181.31-3.23 495.44-469.8 475.45-727.72-283.38-78.77-544.99-47.04-762.67 109.02-164.16 117.7-320.33 411.41-361.44 597.25z" class="fil3"/>
      <path d="M5573.11 3120.5c-34.19 39.9 28.57 239.74-123.8 455.45-73.77 104.4-208.3 197.46-401.5 191.01-184.18-6.14-317.35-100.92-396.09-195.98-92.95-112.2-119.89-249.15-113.73-396.8.09-2.34.07-36.7 0-37.01-6.72-32.64 7.75-11.36-15.33-31.83-81.02 246.42-97.5 419.51 30.22 639.27 85.58 147.29 264.16 281.32 514.13 271.67 424.2-16.35 751.12-456.51 506.1-895.78z" class="fil1"/>
      <path d="M4954.7 8277.69c37.55-25.46 64.83-10.61 108.55-1.33 21.34 4.53 36.61 4.57 58.85 6.62 31.9 2.96 33.63 6.72 57.3-5.35 11.75-238.21 108.58-452.4 106.95-722.78-1.08-178.18-37.34-609.53-172.39-658.59-59.01 226.6-109.72 399.54-141.67 649.17-23.33 182.34-33.01 366.41-34.74 551.13-.44 47.77-5.76 122.13 10.46 167.77l6.69 13.36z" class="fil11"/>
      <path d="M1204.13 4223.27c19.49-11.87-5.72-4.35 18.92-5.81l45.02 35.55c19.29 31.1 37.15 58.67 65.54 80.64 2.11 1.63 8.46 5.83 10.65 7.36l209.72 112.41c2.74.92 9.86 3.9 12.61 4.72l109.2 22.12c41.81 6.74 66.29 11.25 114.27 11.53 14.45.1 48.48 1.16 60.93-1.18 16.29-3.07 28.84-32.01 71.82-2.12l54.04 12.3c-5.64 5.49 11.19 23.58-15.98-1.32-19.11-17.48-5.26-11.44-2.72-17.44-62.74-17.71-144.47 19.84-181.67-45.91-1.17-2.07-4.45-17.96-5.03-21.01-49.67-14.72-3.22 6.06-22.91-3.15-33.92-15.88-3.03 10.11-33.05-23.23 29.16 21.37-25.83 14.48 9.22-18.78-36.43 42.76-9.13-14.41-77.72 43.61-2.13-43.94 1.42-85.23-25.51-120.41-6.24-8.16-20.73-16.7-24.68-18.5l-44.64-24.73c-17.81-17.67-23.37-31.44-23.37-57.42-21.24 26.38 1.53 9.02-22.75 12.47-54.15 7.69-15.72 8.34-39.05-16.87-1.07-1.17-2.66-3.68-3.62-4.85-16.37-20.14-20.92-39.96-46.93-48.75l-22.66-5.56c-31.45-14.82-29.93-27.46-43.74-60.06l-11.4-23.67c-.44-.69-2.26-2.73-2.67-3.38-.38-.59-2.16-2.61-2.49-3.16-11.03-19.61-14.04-9.33-.83-14.24-4.35 20.26-17.65 31.35-20.66 32.19-1.07.29-4.09.23-5.18.1l-22.37-23.66c-1.44-2.37-4.89-10.03-6.06-12.25l-29.64-43.08 24.86-46.69c-8.33-9.79-1.42-3.17-12.41-12.34-1.08-.9-3.38-2.94-4.63-3.92l-16.17-11.07c-5.83-4.29-39.46-19.97-28.99-47.35 12.97-33.95 52.63-8.61 82.73-26.76l29.24-19.93c17.99 8.27 23.81 23.06 45.22 28.74 10.69 2.84 37.26 2.45 53.99 6.94l392.31 198.02c28.99 19.13 49.13 50.76 77.08 73.04 30.18 24.04 45.4 37.51 58.92 67.11l21.78 33.63c10.69 15.68 21.39-35.34 7.27 19 25.29 22.65 18.46-7.64 10.51 32.27 49.27 41.17 86.21 93.49 137.01 123.32-58.71-161.25-225.16-472.66-359.6-559.89-195.65-126.96-547.63-183.02-735.39-83.39-7.11 100.58 113.68 442 171.66 474.81z" class="fil3"/>
      <path d="M6908.59 4976.12c23.91-12.49 37.64-33.5 63.41-53.95 22.81-18.11 44.7-33.02 70.33-51.21 40.31-28.59 99.56-64.37 131.52-96.12 20.95-178.58 177.3-632.24 246.6-813.99 48.82-128.06 98.75-249.2 152.08-370.97l176.43-360.39c-106.25 51.5-343.56 413.11-418.92 556.14-159.39 302.48-265.3 608.74-367.81 939.73l-66.32 215.07c.23 54.99-5.83 20.44 12.68 35.69zm-3931.65-173.69c44.44 25.25 84.34 53.64 125.29 85.26 27.28 21.07 86.16 75.42 119.97 79.14 8.07-101.85-285.87-840.33-347.25-972.23-72.23-155.29-147.84-296.29-232.41-430.7-65.44-103.97-207.82-289.42-298.99-358.28 15.85 38.91 130.38 210.57 192.99 352.39 108.65 246.15 228.94 554.35 301.86 818.59 36.57 132.44 128.59 379.02 138.54 425.83zm3734.23-1824.02 34.21 91.42c23.58-9.48 96.39-91.11 105.02-119.59 62.26-185.08 45.18-614.53 16.04-829.03-17.04-125.24-42.21-251.04-65.14-374.96-9.51-51.42-50.7-373.42-54.39-379.9-48.77 84.7-44.16 646.52-39.98 780.45 4.37 140.14 11.47 280.38 7.27 420.63-3.62 120.58-23.48 296.75-3.03 410.98zm-3482.78-261.6 51.19 271.8c8.29 16.5 23.23 27.61 36.38 41.12 27.45 28.22 12.85 25.11 51.74 33.75l26.38-58.52c10.21-46.2-11.24-147-12.72-203.67-5.78-221.91 6.22-406.03 14.95-626.01 5.85-147.16 24.09-711.97-54.82-793.74-11.55 114.04-15.44 218.86-31.29 333.68-61.53 446.09-122.94 454.53-81.81 1001.59z" class="fil12"/>
      <path d="M5266.91 9432.26c-30.58 31.68-78.6 197.77-65.21 247.44 292.64 32.62 929.91-91.92 1249.31-187.85 71.01-21.33 110.84-23.46 145.12-72.31-229.04 6.85-448.71 37.93-679.96 48.93l-522.83 12.31c-124.45-.49-134.32 10.13-126.43-48.52zm-433.67-28.08.65 55.98c-85.8 45.18-1168.35-38.41-1344.8-46.97 21.12 25.85 45.66 29.51 84.66 38.83 33.37 7.99 48.06 12.8 79.09 22.8l502.13 132.26c135.96 28.74 621.76 91.75 756.66 70.86 17.11-58.92-60.34-254.41-78.39-273.76z" class="fil2"/>
      <path d="M3407.76 5472.09c16.86 59.15 49.82 132.47 90.44 159.68 51.36 34.4 123.13 51.23 193.16 41.11 311.39-44.93 225.47-570.25-97.94-499.42-102.07 22.35-224.68 161.72-185.66 298.63zm2810.57-18.69c50.59 350.56 516.86 250.57 478.76-54.99-41.29-331.26-528.51-289.74-478.76 54.99z" class="fil3"/>
      <path d="M1204.13 4223.27c18.57 52.03 109.61 138.75 149.26 172.79 54.49 46.75 114.06 82.02 201.76 105.98 199.36 54.47 384.67 6.22 586.56 16.58l-65.28-33.5c-114.16-56.54-779.52-603.81-786.37-615.11 105.16-8.08 315.99 102.35 392.96 149.39 189.04 115.48 235.97 198.69 307.43 249.02 7.95-39.91 14.78-9.62-10.51-32.27 14.12-54.34 3.42-3.32-7.27-19l-21.78-33.63c-13.52-29.6-28.74-43.07-58.92-67.11-27.95-22.28-48.09-53.91-77.08-73.04l-392.31-198.02c-16.73-4.49-43.3-4.1-53.99-6.94-21.41-5.68-27.23-20.47-45.22-28.74l-29.24 19.93c-30.1 18.15-69.76-7.19-82.73 26.76-10.47 27.38 23.16 43.06 28.99 47.35l16.17 11.07c1.25.98 3.55 3.02 4.63 3.92 10.99 9.17 4.08 2.55 12.41 12.34l-24.86 46.69 29.64 43.08c1.17 2.22 4.62 9.88 6.06 12.25l22.37 23.66c1.09.13 4.11.19 5.18-.1 3.01-.84 16.31-11.93 20.66-32.19-13.21 4.91-10.2-5.37.83 14.24.33.55 2.11 2.57 2.49 3.16.41.65 2.23 2.69 2.67 3.38l11.4 23.67c13.81 32.6 12.29 45.24 43.74 60.06l22.66 5.56c26.01 8.79 30.56 28.61 46.93 48.75.96 1.17 2.55 3.68 3.62 4.85 23.33 25.21-15.1 24.56 39.05 16.87 24.28-3.45 1.51 13.91 22.75-12.47 0 25.98 5.56 39.75 23.37 57.42l44.64 24.73c3.95 1.8 18.44 10.34 24.68 18.5 26.93 35.18 23.38 76.47 25.51 120.41 68.59-58.02 41.29-.85 77.72-43.61-35.05 33.26 19.94 40.15-9.22 18.78 30.02 33.34-.87 7.35 33.05 23.23 19.69 9.21-26.76-11.57 22.91 3.15.58 3.05 3.86 18.94 5.03 21.01 37.2 65.75 118.93 28.2 181.67 45.91-2.54 6-16.39-.04 2.72 17.44 27.17 24.9 10.34 6.81 15.98 1.32l-54.04-12.3c-42.98-29.89-55.53-.95-71.82 2.12-12.45 2.34-46.48 1.28-60.93 1.18-47.98-.28-72.46-4.79-114.27-11.53l-109.2-22.12c-2.75-.82-9.87-3.8-12.61-4.72l-209.72-112.41c-2.19-1.53-8.54-5.73-10.65-7.36-28.39-21.97-46.25-49.54-65.54-80.64l-45.02-35.55c-24.64 1.46.57-6.06-18.92 5.81z" class="fil13"/>
      <path d="M1579.5 4691.73c246.32 130.27 558.01 248.66 849.98 290.51l322.78 60.8c-20.47-45.32-154.9-152.84-201.87-191.55-214.48-176.82-363.86-143.93-619.89-136.3-137.68 4.11-312.32-25.8-351-23.46zm5728.31 369.13c93.45-18.97 203.21-52.72 306.49-74.23 102.78-21.41 217.35-41.75 312.34-70.93 76.92-23.63 474.64-145.35 548.35-200.45l10.53-10.44c-61.16-1.47-123.94 9.39-189.02 10.06-178.58 1.82-372.66-27.13-540.4 29.91-148.4 50.46-385.5 220.92-448.29 316.08z" class="fil11"/>
      <path d="M7998.22 4521.17c163.01 2.45 326.24 21.27 487.61-7.95 42.46-7.69 99.32-17.2 130.59-42.89-35.34-20.03-31.46-38.74-102.6-14.89-2.88.96-4.91 2.11-7.66 3.09-2.6.92-4.7 2.11-7.21 2.99-41.4 14.25-173.48 23.21-200.91 1.88 25-19.22 89.38-12.47 129.35-16.21 119.95-11.21 83.61-6.35 83.8-46.03 1.19 2.57 2.32 6.14 3.36 7.81l12.66 18.02c23.54 16.88 31.41-3.09 46.16-13.74l38.26-34.61c-1.4-1.81-6.62-8.58-7.94-10.42-22.61-31.89 1.84 15.21-10.04-16.9l52.88-37.36c1.51-40.82 7.36-16.34 9.26-65.73 6.78-177.27 35.86-9.53 35.86-174.01-44.62 14.75-14.64 7.08-42.84 40.15l-109.53 96.51c-32.25 38.35-84.88 57.54-135.93 115.71l-38.05 38.39c-12.58 9.26-16.96 13.1-34.57 8.11 4.37-28.47 32.19-44.7 34.52-46.71 1.99-1.77 8.09-6.6 9.93-8.16l175.53-162.79c1.08-1.13 3.05-3.26 4.11-4.28 17.52-16.55 24.52-8.04 44.18-18.68l43.06-67.04c1.03-1.92 7.15-10.57 9.11-12.99-.86.6-12.09-4.05-1.86 6.68 7.5 7.88-6.81 1.28 20.57 8.86 2.3-1.46 5.29-3.3 6.9-4.39 1.61-1.08 4.93-2.96 6.83-4.3l48.26-73.35c.59-4.5 1.91-5.62 3.31-8.21 43.31-.27 34.14-1.55 83.81-47.33 19.97-18.42 2.24-4.83 18.88-18.09-6.35-14.18-9.04-37.95-31.83-45.78-73.54-25.28-25.29-7.21-42.77 12.47l45.49-1.32c-30.2 26.78-72.56 47.33-108.67 74.42l-250.64 206.61c-21.43 16.12-28.26 19.67-46.14 37.99l-148.8 131.48c-18.33 15.16-24.25 25.27-42.33 41.42-141.01 126.01-149.38 105.64-213.96 151.57z" class="fil13"/>
      <path d="m2141.71 4518.62 45.72 5.04c-7.67-60.7-36.3-91.42-59.97-131.92-50.8-29.83-87.74-82.15-137.01-123.32-71.46-50.33-118.39-133.54-307.43-249.02-76.97-47.04-287.8-157.47-392.96-149.39 6.85 11.3 672.21 558.57 786.37 615.11l65.28 33.5z" class="fil1"/>
      <path d="M4665.09 1745.15c-23.15-53.28-16.4-91.23-46.52-136.62-34.94 5.39-32.12 7.12-32.83 31.29l1.65 154.64c-.23 12.87-2.11 36.55-2.51 63.25l3.22 35c.15 1 .88 3.39 1.02 4.3 3.43 24.29-9.38 32.9 14.37 58.42 16.15 17.34 21.93 8.8 36.74 38.77l4.95 15.18c.15.8.21 3.3.31 4.05.09.71-.12 3.1-.04 3.79 2.24 20.9 15 31.87 77.62 100.13l250.22 141.86c10.52-21.93 8.48-10.51 9.33-43.61 33.94 3.59 74.82 14.3 84.01 14.34.67.02 57.5-9.6 74.69-12.38l45.13-14.27c14.29-6.49 25.26-13.57 27.07-14.8 33-22.38 31.63-8.88 28.89-41.36-2.74-1.57-6.12-2.97-8.67-3.82l-26.75-7.71c-26.65-3.7-59.91 7.44-112.35-.9l-74.67-34.27c-38.81-.63-19.3 2.13-46.39-10.28l-10.95-6.39c-1.37-.71-3.78-2.15-5.07-2.84-44.57-23.48-29.41-14.83-29.37-22.75.05-15.64 6.4-1.48 7.77-7.58-129.53-75.02-33.27-19.26-114.85-77.09l-29.33-18.96c-67.92-43.05-14.74-26.09-51.86-68.91-71.1 5.35 20.35-.46-37.34 18.67 6.2-57 31.83-23.51 15.58-31.16-5.79-27.42-19.3-48-26.49-64.73l-20.63-50.23c-.9-2.05-2.03-4.43-2.93-6.49-.93-2.11-2.11-4.43-3.02-6.54z" class="fil4"/>
      <path fill="#0d3c4a" d="M4417.44 5357.63c-.28 42.2 6.53 58.7 33.1 78.18l287.23-358.01c92.15-119.04 187.23-231.55 276.06-358.48-1.76-1.36-4.91-2.38-6.16-2.67-33.07-7.69-28.32-.08-48.73 11.17-147.48 81.19-458.82 331.41-528.83 498.88-21.16 50.6-6.37 80.56-12.67 130.93z"/>
      <path d="m7967.76 4448.88-32.93 69.99 63.39 2.3c64.58-45.93 72.95-25.56 213.96-151.57 18.08-16.15 24-26.26 42.33-41.42l148.8-131.48c17.88-18.32 24.71-21.87 46.14-37.99l250.64-206.61c36.11-27.09 78.47-47.64 108.67-74.42l-45.49 1.32c-23.46 11.44-86.18 22.12-119.91 34.84-41.65 15.74-76.93 30.66-115.98 51.94-134.39 73.19-282.81 193.18-384.63 306.4-33.02 36.7-129.41 150.72-174.99 176.7z" class="fil12"/>
      <path fill="#78c757" d="M8720.3 5739.31c-38.89 8.44-318.89 230.65-355.73 258.48l-353.34 253.6c-121.66 85.78-243.08 163.89-371.53 244.77-91.5 57.64-319.44 180.83-359.58 250.15 198.02-98.22 241.84-129.6 423.62-242.34l789.32-517.63c65.54-45.24 126.55-91.38 189.67-137.02l179.06-141.84c16.5-38.32 9.08-4.44 6.96-38.51-26.57-3.63-31.4-13.41-66.11 19.17l-34.48 29.18c-1.66 1.09-3.89 2.61-5.64 3.66-12.91 7.81-26.38 13.66-42.22 18.33z"/>
      <path d="M4953.91 909.42c22.18 7.95 7.62 22.51-3.81 45.43-10.02 20.07-15.74 29.4-25.56 50.71-16.56 35.86-34.94 67.19-58.96 98.02 29.3 16.25 23.64-32.96 23.64 34.82-16.19 1.5-3.82 3.92 3.82 11.29-.23-1.64-4.45-14.51-4.24-16.85l5.93-22.06c.69-2.11 2.13-5.76 3.87-8.25 62.01 2.53 56.49.99 65.35 19.14 8.13-33.47 20.57-23.04 39.77-105.56l4.43-17.82c.64-2.59 1.31-6.29 2.52-9.23l21.23 9.73c-.01.04-1.89.15-2.55-.4 10.71-1.56 12.84-50.61 10.27-84.06 34.68 12.53 15.58 8.54 26.99 17.89l63.47 80.59c35.17 63.62-36.24-36.12 14.27 20.8 1.71 1.92 16.5 15.75 17.83 17.75l5.21 10.36c10.31 25.17-51.3 58.02-72.9 69.26-37.26 19.38-46.26 51.9-34.36 100.86l22.75-4.36c27.49-7.71-24.4-8.17 21.14-6.83-.42 1.71-1.84 2.44-2.13 4.84-4.2 33.46 17.64-37.32-4.93 10.57-23.44 49.81-20.95 46.12-20.95 107.8l29.36-37.25c16.96-46.51 31.67-79.47 71.23-104.55 59.82-37.91 104.93 3.21 148.14 18.96-3.94-19.46-.94-19.42-.77-22.08.23-3.71 3.55-18.98 4.08-32.43l46.82 18.59-235.51-296.76c-26.88-35.28-45.74-76.38-72.73-104.45-50.88 5.58-99.25 71.37-112.72 125.53zm417.95 378.5c21.66 102.7 21.81 176.79-66.85 210.81-42.97 16.5-86.51 11.55-122.46-9.44-46.66-27.22-39.33-42.9-69.01-70.7-41.98.04-15.79-2.17-22.14 9.38 13.51 40.43 27.26 34.46 34.3 54.8 31.85 91.88-10.53-19.53-15.69 47.94 15.69 6.6-.25 8.43 34.59 21.3 70.64 26.09 208.88 52.51 236.81-16.58l69.26-90.4c13.49-.31 13.28 18.55 16.25 37.53 6.7 42.61-3.05 11.16 10.09 42.01l41.58 109.61c20.8 93.07 19.78 31.37 21.75 139.37 17.87 6.94 11.13 4.89 20.99 18.72 1.15-.25 2.71-2.9 3.02-1.82l16.8-4.07c39.14-.17 7.62 12.82 17.62 5.85 0-249.87-9.16-112.75-18.67-224.16 31.17-10.63-4.53-20.42 23.46 6.43 5.53 5.29 4.16 10.97 4.55 16.96l4.32-37.61c-.91-74.54-73.2-233.24-147.45-269.54-14.21 24.04-12.14 23.06-20.31 46.35-34.4-12.12-39.49-21.79-72.81-42.74z" class="fil10"/>
      <path d="M4944.76 8372.16c2.34 82.27 36.17 161.83 52.78 241.76 14.28 68.68 9.67 183.49 50.42 230.05 27-27.72 31.51-100.49 40.43-138.25 23.77-100.72 85.47-353.21 91.01-428.09-23.67 12.07-25.4 8.31-57.3 5.35-22.24-2.05-37.51-2.09-58.85-6.62-43.72-9.28-71-24.13-108.55 1.33l-9.94 94.47z" class="fil5"/>
      <path d="m5105.37 1306.61 8.17 111.98c29.68 27.8 22.35 43.48 69.01 70.7 35.95 20.99 79.49 25.94 122.46 9.44 88.66-34.02 88.51-108.11 66.85-210.81-15.22-12.11-40.03-52.24-47.12-66.9-43.21-15.75-88.32-56.87-148.14-18.96-39.56 25.08-54.27 58.04-71.23 104.55z" class="fil0"/>
      <path fill="#81c65c" d="M6451.47 6930.87c-27.43 17.23-163.84 222.38-174.01 259.99l217.51-186.95c17.28-13.72 58.49-39.23 65.29-55.94l28.81-72.58c-16.07-29.32-43.43-12.13-58.76 5.1l-15.68-20.59-63.16 70.97z"/>
      <path fill="#3aeaff" d="M5324.74 1221.02c7.09 14.66 31.9 54.79 47.12 66.9 33.32 20.95 38.41 30.62 72.81 42.74 8.17-23.29 6.1-22.31 20.31-46.35-7.27-21.93-25.23-35.36-41.71-54.35-16.07-18.5-27.6-40.06-48.4-44.86l-46.82-18.59c-.53 13.45-3.85 28.72-4.08 32.43-.17 2.66-3.17 2.62.77 22.08z"/>
      <path fill="#d2edcd" d="M3607.12 6846.03c-9.63-28.72-257.42-316.58-292.45-329.91l-30.29-4.11c20.54 45.35 52.68 59.15 84.11 89.52 28.08 27.17 48.46 54.33 74.84 83.65l163.79 160.85z"/>
      <path fill="#c9eac5" d="m6451.47 6930.87 63.16-70.97 261.16-298.37c-14.68 9.59-7.25 15.27-13.47-3.76-36.22 13.64-129.95 132.24-169.74 179.46-14.63 17.38-18.26 25.56-36.62 47.5-26.52 31.68-90.19 108.98-104.49 146.14z"/>
      <path d="M4582.33 49.44c34.88 4.95 64.65-1.44 101.58-3.76 18.23-1.13 39.58-.78 57.02-2.24 39.8-3.34 28.19 4.89 35.73-16.42h-167.67l-26.66 22.42z" class="fil20"/>
      <path fill="#839ca8" d="m10029.37 5442.71 22.07-.02v-149.24c-22.51 8.52-9.83-17.09-16.71 28.16-.85 5.57-.81 30.32-1.25 38.26-1.59 29.62-5.41 53.93-4.11 82.84z"/>
      <path d="M10051.44 4785.6v-92.87c-13.84-17.54 4.54.25-18.44-10.1-1.96 20.88-4.01 40.51-1.96 62.26 3.3 35.13-6.54 40.23 20.4 40.71z" class="fil20"/>
      <path fill="#688797" d="M5501.55 45.01c-7.23-17.84 2.09-10.2-9.46-17.99h-93.85c.5 26.68 6.02 16.78 40.44 19.7 20.99 1.76 42.27-.15 62.87-1.71z"/>
    </g>
  </g>
</svg>
